#N canvas 227 171 1072 723 10;
#X obj 38 39 inlet trigger;
#X obj 154 66 inlet set;
#X obj 38 61 t b;
#X obj 38 83 f;
#X obj 38 105 sel 0 1;
#X obj 154 136 sel 1 0;
#N canvas 0 23 263 103 Vals-\$1-\$2 0;
#X obj 0 0 fixPosVals \$1 \$2;
#X restore 39 228 pd Vals-\$1-\$2;
#X obj 181 231 pack \$1 \$2;
#X obj 57 178 s fixTrigger-\$1-\$2;
#X obj 488 394 f;
#X obj 488 372 r dumpInst-\$1-Pos-\$2;
#X obj 507 493 s fixNotes-\$1-\$2;
#X obj 488 417 sel 0 1;
#X obj 154 110 t f f;
#X obj 148 381 r instDumped-\$1;
#X obj 79 288 spigot;
#X obj 154 196 t b b;
#X obj 112 261 r fromPreset-\$1;
#X obj 148 433 t s b;
#X obj 148 403 spigot;
#X msg 208 419 0;
#X obj 266 386 r loadspigot;
#X obj 488 535 pack f s;
#X obj 488 464 f \$2;
#X msg 488 559 \; toGUI list /FixPosPageLabel SequencerPosition \$1
for Instrument \$2 \; toGUI list /seqPosNoteLabel position Empty!!!
\; toGUI list /seqRootGrid clear \; toGUI list /seqRootGrid enable
0 \;;
#X obj 507 439 t b b;
#X obj 148 460 pack s \$2 \$1;
#X obj 79 310 pack \$1 \$2;
#X msg 79 331 \; dumpInsts \$1;
#X obj 154 88 change -1;
#X obj 201 170 pack \$1 \$2 s;
#X obj 279 39 spigot;
#X obj 413 22 == 6;
#X obj 413 0 r setPage;
#X obj 228 272 spigot;
#X obj 262 225 r setPage;
#X obj 262 247 == 6;
#N canvas 513 23 782 587 highOrLowest 0;
#X obj 47 27 inlet;
#X obj 47 203 outlet;
#X obj 47 154 list;
#X obj 418 144 list;
#X obj 418 166 route bang;
#X obj 418 111 r storePreset;
#X obj 475 210 list trim;
#X obj 475 232 s storeToPreset;
#X obj 131 218 spigot;
#X obj 131 194 list;
#X obj 131 159 t b a;
#X obj 197 179 r editInst;
#X obj 131 240 spigot;
#X obj 281 184 r setPage;
#X obj 197 201 == \$1;
#X obj 185 223 == 6;
#X obj 281 206 t b f;
#X msg 81 290 \; toGUI list /seqStepPosNoteLowest set 0 \; toGUI list
/seqStepPosNoteHighest set 0;
#X msg 158 380 \; toGUI list /seqStepPosNoteLowest set 1 \; toGUI list
/seqStepPosNoteHighest set 0;
#X msg 185 430 \; toGUI list /seqStepPosNoteLowest set 0 \; toGUI list
/seqStepPosNoteHighest set 1;
#X obj 131 262 route bang;
#X obj 197 343 sel 0;
#X obj 74 127 route dump;
#X obj 281 27 inlet;
#X msg 281 49 fix;
#X obj 47 176 list trim symbol;
#X obj 281 228 spigot;
#X obj 340 211 r openPos-\$1;
#X obj 340 233 == \$2;
#X obj 74 105 r seqPosHighOrLow-\$2-\$1;
#X obj 475 188 list prepend add seqPosHighOrLow-\$2-\$1;
#X connect 0 0 2 0;
#X connect 2 0 25 0;
#X connect 3 0 4 0;
#X connect 4 1 30 0;
#X connect 5 0 3 0;
#X connect 6 0 7 0;
#X connect 8 0 12 0;
#X connect 9 0 8 0;
#X connect 10 0 9 0;
#X connect 10 1 9 1;
#X connect 11 0 14 0;
#X connect 12 0 20 0;
#X connect 13 0 16 0;
#X connect 14 0 8 1;
#X connect 15 0 12 1;
#X connect 16 0 26 0;
#X connect 16 1 15 0;
#X connect 20 0 17 0;
#X connect 20 1 21 0;
#X connect 21 0 18 0;
#X connect 21 1 19 0;
#X connect 22 0 9 0;
#X connect 22 1 3 1;
#X connect 22 1 2 1;
#X connect 22 1 10 0;
#X connect 23 0 24 0;
#X connect 24 0 2 0;
#X connect 25 0 1 0;
#X connect 26 0 9 0;
#X connect 27 0 28 0;
#X connect 28 0 26 1;
#X connect 29 0 22 0;
#X connect 30 0 6 0;
#X restore 38 154 pd highOrLowest;
#X msg 279 61 \; toGUI list /FixPosPageLabel SequencerPosition \$2
for Instrument \$3 \; toGUI list /seqPosNoteLabel position Empty!!!
\; toGUI list /seqRootGrid clear \; toGUI list /seqRootGrid enable
0 \; PosPos \$2;
#X obj 57 126 t b b;
#X obj 228 316 f;
#X obj 273 299 == 0;
#X msg 228 344 \; toGUI list /seqRootGrid enable \$1 \;;
#X obj 273 277 v /seqNoteDump-\$1;
#X obj 341 316 tgl 15 0 empty empty empty 17 7 0 10 -262144 -1 -1 0
1;
#X obj 228 294 t b b;
#X obj 581 398 pack \$2 s \$1;
#X msg 583 422 \; toGUI list /seqRootGrid enable 1 \; toGUI list /FixPosPageLabel
SequencerPosition \$1 for Instrument \$2 \; openPos-\$3 \$1;
#X msg 148 484 \; openChordLabel 1 \; toGUI list /FixPosPageLabel SequencerPosition
\$2 for Instrument \$1 \;, f 31;
#X msg 484 248 \; PosPos \$2 \; fixNotes-\$1-\$2 bang;
#X obj 154 10 s fixTriggerToggle-\$1-\$2;
#X obj 38 200 s fixPosSend-\$1;
#X connect 0 0 2 0;
#X connect 1 0 3 1;
#X connect 1 0 29 0;
#X connect 2 0 3 0;
#X connect 3 0 4 0;
#X connect 4 0 37 0;
#X connect 4 1 39 0;
#X connect 5 0 16 0;
#X connect 5 1 30 0;
#X connect 7 0 49 0;
#X connect 7 0 34 0;
#X connect 9 0 12 0;
#X connect 10 0 9 0;
#X connect 12 0 23 0;
#X connect 12 1 25 0;
#X connect 13 0 5 0;
#X connect 13 1 19 1;
#X connect 14 0 19 0;
#X connect 14 0 22 1;
#X connect 14 0 30 2;
#X connect 14 0 46 1;
#X connect 15 0 27 0;
#X connect 16 0 15 0;
#X connect 16 1 7 0;
#X connect 17 0 15 1;
#X connect 18 0 26 0;
#X connect 18 1 20 0;
#X connect 19 0 18 0;
#X connect 20 0 19 1;
#X connect 21 0 19 1;
#X connect 22 0 24 0;
#X connect 23 0 22 0;
#X connect 25 0 11 0;
#X connect 25 1 45 0;
#X connect 25 1 46 0;
#X connect 26 0 48 0;
#X connect 27 0 28 0;
#X connect 29 0 9 1;
#X connect 29 0 13 0;
#X connect 29 0 50 0;
#X connect 30 0 31 0;
#X connect 31 0 38 0;
#X connect 32 0 31 1;
#X connect 33 0 32 0;
#X connect 34 0 45 0;
#X connect 35 0 36 0;
#X connect 36 0 34 1;
#X connect 37 0 51 0;
#X connect 39 0 8 0;
#X connect 39 1 37 1;
#X connect 40 0 42 0;
#X connect 41 0 40 1;
#X connect 41 0 44 0;
#X connect 43 0 41 0;
#X connect 45 0 40 0;
#X connect 45 1 43 0;
#X connect 46 0 47 0;
