#N canvas 726 66 517 409 10;
#X obj 17 11 r fixTrigger-\$1-\$2;
#X obj 17 113 list 1 0 0 0 0 0 0;
#N canvas 470 344 869 533 fixNotes 0;
#X obj 298 235 t b f;
#X obj 446 279 pack f 0 f;
#X obj 356 262 f 0;
#X obj 383 262 + 1;
#X msg 398 240 0;
#X obj 446 301 list prepend /seqRootGrid set;
#X obj 387 43 r fixNotes-\$1-\$2;
#X obj 286 279 spigot;
#X obj 286 301 sel 0 1 2 3 4 5 6;
#X msg 488 365 add2 \$1;
#X msg 286 321 symbol I;
#X msg 300 341 symbol II;
#X msg 314 361 symbol III;
#X msg 328 381 symbol IV;
#X msg 357 321 symbol V;
#X msg 371 341 symbol VI;
#X msg 385 361 symbol VII;
#X msg 446 342 list /seqPosNoteLabel chordScaleNote(s): I;
#X obj 356 166 list 1 0 0 0 0 0 0;
#X msg 426 385 set list /seqPosNoteLabel chordScaleNote(s):;
#X obj 530 147 f \$2;
#X obj 530 169 s editPosGrid;
#X obj 387 130 t b b b;
#X obj 37 251 list 1 0 0 0 0 0 0;
#X obj 37 313 s storeToPreset;
#X obj 37 292 list trim;
#X obj 142 171 outlet;
#X obj 37 208 r storePresetAfter;
#X obj 611 235 +;
#X obj 645 236 t f;
#X obj 596 258 f;
#X obj 657 275 sel 0;
#X obj 657 297 f \$2;
#X obj 657 319 s \$1-FixPosOff;
#X msg 626 212 0;
#X obj 446 322 s fixGUI-\$1;
#X obj 356 218 list-drip;
#X obj 685 147 s retriggerScale;
#X obj 387 87 spigot;
#X obj 37 230 spigot;
#X obj 142 149 r seqRootGrid-\$2-\$1;
#X obj 37 272 list prepend add seqRootGrid-\$2-\$1;
#X obj 70 99 == 0;
#X obj 70 129 change;
#X obj 387 65 t b b;
#X obj 152 82 v /seqNoteDump-\$1;
#X connect 0 0 2 0;
#X connect 0 1 1 2;
#X connect 0 1 7 1;
#X connect 1 0 5 0;
#X connect 2 0 3 0;
#X connect 2 0 1 0;
#X connect 2 0 7 0;
#X connect 3 0 2 1;
#X connect 4 0 2 1;
#X connect 5 0 35 0;
#X connect 6 0 44 0;
#X connect 7 0 8 0;
#X connect 8 0 10 0;
#X connect 8 1 11 0;
#X connect 8 2 12 0;
#X connect 8 3 13 0;
#X connect 8 4 14 0;
#X connect 8 5 15 0;
#X connect 8 6 16 0;
#X connect 9 0 17 0;
#X connect 10 0 9 0;
#X connect 11 0 9 0;
#X connect 12 0 9 0;
#X connect 13 0 9 0;
#X connect 14 0 9 0;
#X connect 15 0 9 0;
#X connect 16 0 9 0;
#X connect 17 0 35 0;
#X connect 18 0 36 0;
#X connect 19 0 17 0;
#X connect 20 0 21 0;
#X connect 22 0 17 0;
#X connect 22 0 37 0;
#X connect 22 1 18 0;
#X connect 22 2 19 0;
#X connect 22 2 4 0;
#X connect 22 2 34 0;
#X connect 22 2 20 0;
#X connect 23 0 41 0;
#X connect 25 0 24 0;
#X connect 27 0 39 0;
#X connect 28 0 29 0;
#X connect 28 0 30 1;
#X connect 29 0 28 1;
#X connect 30 0 31 0;
#X connect 31 0 32 0;
#X connect 32 0 33 0;
#X connect 34 0 28 1;
#X connect 36 0 0 0;
#X connect 36 0 28 0;
#X connect 36 1 30 0;
#X connect 38 0 22 0;
#X connect 39 0 23 0;
#X connect 40 0 18 1;
#X connect 40 0 23 1;
#X connect 40 0 26 0;
#X connect 41 0 25 0;
#X connect 42 0 43 0;
#X connect 43 0 38 1;
#X connect 43 0 39 1;
#X connect 44 0 38 0;
#X connect 44 1 45 0;
#X connect 45 0 42 0;
#X restore 122 84 pd fixNotes;
#X obj 36 155 unpack f f f f f f f;
#X obj 36 177 sel 1;
#X obj 55 197 sel 1;
#X obj 75 177 sel 1;
#X obj 94 197 sel 1;
#X obj 114 177 sel 1;
#X obj 133 197 sel 1;
#X obj 153 177 sel 1;
#X obj 286 212 r scale;
#X obj 36 348 s fixNoteTrigger-\$1;
#X obj 17 229 list;
#X obj 17 135 t b a b;
#X msg 36 295 \$1;
#X msg 153 217 adddollar 7;
#X msg 213 152 set;
#X msg 133 237 adddollar 6;
#X msg 114 257 adddollar 5;
#X msg 94 277 adddollar 4;
#X msg 36 257 adddollar 1;
#X msg 55 237 adddollar 2;
#X msg 75 217 adddollar 3;
#X obj 17 85 sel 0;
#X msg 71 323 fixNote direct \$1;
#X obj 17 63 v /seqNoteDump-\$1;
#X obj 17 33 spigot;
#X obj 163 16 r fixTriggerToggle-\$1-\$2;
#X connect 0 0 27 0;
#X connect 1 0 14 0;
#X connect 2 0 1 1;
#X connect 3 0 4 0;
#X connect 3 1 5 0;
#X connect 3 2 6 0;
#X connect 3 3 7 0;
#X connect 3 4 8 0;
#X connect 3 5 9 0;
#X connect 3 6 10 0;
#X connect 4 0 21 0;
#X connect 5 0 22 0;
#X connect 6 0 23 0;
#X connect 7 0 20 0;
#X connect 8 0 19 0;
#X connect 9 0 18 0;
#X connect 10 0 16 0;
#X connect 11 0 13 1;
#X connect 13 0 15 0;
#X connect 14 0 13 0;
#X connect 14 1 3 0;
#X connect 14 2 17 0;
#X connect 15 0 12 0;
#X connect 16 0 15 0;
#X connect 17 0 15 0;
#X connect 18 0 15 0;
#X connect 19 0 15 0;
#X connect 20 0 15 0;
#X connect 21 0 15 0;
#X connect 22 0 15 0;
#X connect 23 0 15 0;
#X connect 24 0 1 0;
#X connect 24 1 25 0;
#X connect 25 0 12 0;
#X connect 26 0 24 0;
#X connect 27 0 26 0;
#X connect 28 0 27 1;
