#N canvas 733 127 365 232 10;
#N canvas 648 23 792 561 midiRouter 1;
#X obj 135 -19 notein;
#X obj 135 96 spigot;
#X obj 168 76 == 1;
#X obj 161 505 pack f f 1;
#X obj 120 381 f;
#X obj 162 364 t b f;
#N canvas 464 267 716 453 noteInRange 0;
#X obj 29 19 inlet;
#X obj 29 41 moses 0;
#X obj 67 60 moses 127;
#X obj 29 101 moses 0;
#X obj 29 161 moses 0;
#X obj 67 231 outlet;
#X obj 67 120 moses 0;
#X obj 67 180 moses 0;
#X obj 128 190 s \$0cleanNotes;
#X obj 67 82 pack f 1;
#X obj 67 142 pack f 2;
#X obj 67 202 pack f 3;
#X obj 128 24 + 1;
#X obj 128 84 + 1;
#X obj 128 144 + 1;
#X obj 169 86 f 1;
#X obj 169 146 f 2;
#X obj 169 258 spigot;
#X obj 169 330 spigot;
#X obj 252 219 r editInst;
#X obj 252 241 == \$1;
#X obj 252 291 == 2;
#X obj 252 269 r setPage;
#X obj 252 313 t f f;
#X obj 252 335 sel 1;
#X obj 169 63 sel 1;
#X obj 169 123 sel 1;
#X obj 169 213 sel 1;
#X msg 169 401 \; toGUI list /noteInBelow_\$1Label Range \$1 Off;
#X obj 252 69 spigot;
#X obj 306 67 == 1;
#X obj 252 129 spigot;
#X obj 306 127 == 1;
#X obj 252 189 spigot;
#X obj 306 187 == 1;
#X obj 169 234 f 3;
#X obj 366 233 +;
#X obj 366 255 +;
#X obj 410 216 t b f;
#X obj 410 238 t b f;
#X obj 366 277 change;
#X obj 292 313 sel 1;
#X obj 292 291 == 3;
#X obj 304 242 spigot;
#X msg 292 355 set -1;
#X obj 292 335 t b b;
#X text 378 314 dummy:;
#X obj 425 294 s noteOutSelection-\$1-Off;
#X obj 425 314 r noteOutSelection-\$1-Off;
#X obj 128 104 presFloat /noteInBelow_2 \$1 0 noteInBelow 127 1 2;
#X obj 128 163 presFloat /noteInBelow_3 \$1 0 noteInBelow 127 1 2;
#X obj 128 44 presFloat /noteInBelow_1 \$1 1 noteInBelow 127 1 2;
#X obj 128 -16 presFloat /noteInAbove_1 \$1 0 noteInAbove 127 0 2 0
/noteInBelow_1-\$1 > 0;
#X obj 440 54 presFloat /noteInAbove_2 \$1 0 noteInAbove 127 0 2 0
/noteInBelow_2-\$1 > 0;
#X obj 441 114 presFloat /noteInAbove_3 \$1 0 noteInAbove 120 0 2 0
/noteInBelow_3-\$1 > 0;
#X connect 0 0 1 0;
#X connect 0 0 3 0;
#X connect 0 0 4 0;
#X connect 1 1 2 0;
#X connect 2 0 9 0;
#X connect 3 1 6 0;
#X connect 4 1 7 0;
#X connect 6 0 10 0;
#X connect 7 0 11 0;
#X connect 9 0 5 0;
#X connect 10 0 5 0;
#X connect 11 0 5 0;
#X connect 12 0 1 1;
#X connect 13 0 3 1;
#X connect 14 0 4 1;
#X connect 15 0 17 0;
#X connect 16 0 17 0;
#X connect 17 0 18 0;
#X connect 18 0 28 0;
#X connect 19 0 20 0;
#X connect 20 0 17 1;
#X connect 20 0 43 1;
#X connect 21 0 23 0;
#X connect 22 0 21 0;
#X connect 22 0 42 0;
#X connect 23 0 24 0;
#X connect 23 1 18 1;
#X connect 24 0 29 0;
#X connect 24 0 31 0;
#X connect 24 0 33 0;
#X connect 25 0 15 0;
#X connect 26 0 16 0;
#X connect 27 0 35 0;
#X connect 29 0 15 0;
#X connect 30 0 29 1;
#X connect 30 0 36 0;
#X connect 31 0 16 0;
#X connect 32 0 31 1;
#X connect 32 0 38 0;
#X connect 33 0 35 0;
#X connect 34 0 33 1;
#X connect 34 0 39 0;
#X connect 35 0 17 0;
#X connect 36 0 37 0;
#X connect 37 0 40 0;
#X connect 38 0 36 0;
#X connect 38 1 36 1;
#X connect 39 0 37 0;
#X connect 39 1 37 1;
#X connect 40 0 47 0;
#X connect 41 0 45 0;
#X connect 42 0 41 0;
#X connect 43 0 36 0;
#X connect 44 0 40 0;
#X connect 45 0 43 0;
#X connect 45 1 44 0;
#X connect 49 0 6 1;
#X connect 49 0 8 0;
#X connect 49 0 26 0;
#X connect 49 0 32 0;
#X connect 50 0 7 1;
#X connect 50 0 8 0;
#X connect 50 0 27 0;
#X connect 50 0 34 0;
#X connect 51 0 2 1;
#X connect 51 0 8 0;
#X connect 51 0 25 0;
#X connect 51 0 30 0;
#X connect 52 0 12 0;
#X connect 52 0 8 0;
#X connect 53 0 13 0;
#X connect 53 0 8 0;
#X connect 54 0 8 0;
#X connect 54 0 14 0;
#X restore 135 176 pd noteInRange;
#N canvas 546 23 1072 376 velInRange 0;
#X obj 29 42 inlet;
#X obj 79 81 moses 0;
#X obj 117 100 moses 127;
#X obj 79 141 moses 0;
#X obj 79 201 moses 0;
#X obj 117 264 outlet;
#X obj 117 160 moses 0;
#X obj 117 220 moses 0;
#X obj 117 122 pack f 1;
#X obj 117 182 pack f 2;
#X obj 117 242 pack f 3;
#X obj 178 64 + 1;
#X obj 178 124 + 1;
#X obj 178 184 + 1;
#X obj 29 64 spigot;
#X obj 76 47 == 1;
#X obj 29 124 spigot;
#X obj 29 184 spigot;
#X obj 76 107 == 2;
#X obj 76 167 == 3;
#X obj 76 26 inlet;
#X obj 178 24 presFloat /velInAbove_1 \$1 0 velocityInAbove 127 0 2
0 /noteInBelow_1-\$1 > 0;
#X obj 547 94 presFloat /velInAbove_2 \$1 0 velocityInAbove 127 0 2
0 /noteInBelow_2-\$1 > 0;
#X obj 209 70 presFloat /velInBelow_1 \$1 1 velocityInBelow 127 1 2
0 /noteInBelow_1-\$1 > 0;
#X obj 209 130 presFloat /velInBelow_2 \$1 0 velocityInBelow 127 1
2 0 /noteInBelow_2-\$1 > 0;
#X obj 548 154 presFloat /velInAbove_3 \$1 0 velocityInAbove 127 0
2 0 /noteInBelow_3-\$1 > 0;
#X obj 208 190 presFloat /velInBelow_3 \$1 0 velocityInBelow 127 1
2 0 /noteInBelow_3-\$1 > 0;
#X connect 0 0 14 0;
#X connect 0 0 16 0;
#X connect 0 0 17 0;
#X connect 1 1 2 0;
#X connect 2 0 8 0;
#X connect 3 1 6 0;
#X connect 4 1 7 0;
#X connect 6 0 9 0;
#X connect 7 0 10 0;
#X connect 8 0 5 0;
#X connect 9 0 5 0;
#X connect 10 0 5 0;
#X connect 11 0 1 1;
#X connect 12 0 3 1;
#X connect 13 0 4 1;
#X connect 14 0 1 0;
#X connect 15 0 14 1;
#X connect 16 0 3 0;
#X connect 17 0 4 0;
#X connect 18 0 16 1;
#X connect 19 0 17 1;
#X connect 20 0 15 0;
#X connect 20 0 18 0;
#X connect 20 0 19 0;
#X connect 21 0 11 0;
#X connect 22 0 12 0;
#X connect 23 0 2 1;
#X connect 24 0 6 1;
#X connect 25 0 13 0;
#X connect 26 0 7 1;
#X restore 162 303 pd velInRange;
#X text 576 39 midichannel instrument listenes to.;
#X text 535 434 midichannel instrument sends to.;
#X text 247 305 velocityrange(s) instrument listenes to.;
#X text 367 144 noterange(s) instrument listenes to.;
#X text 218 402 note instrument sends out (0 = played note).;
#N canvas 850 300 682 282 velOutTransform 0;
#X obj 29 -4 inlet;
#X obj 29 21 / 127;
#X obj 99 26 - 1;
#X obj 166 9 t b f;
#X obj 29 43 * 127;
#X obj 29 83 + 0;
#X obj 29 105 i;
#X obj 29 127 outlet;
#X obj 103 122 s \$0velInLink;
#X obj 99 -63 presFloat /velOutBelowTrans \$1 1 velocityOutTransformationBelow
127 1 3;
#X obj 166 -24 presFloat /velOutAboveTrans \$1 0 velocityOutTransformationAbove
127 0 3;
#X connect 0 0 1 0;
#X connect 1 0 4 0;
#X connect 2 0 4 1;
#X connect 3 0 2 0;
#X connect 3 1 2 1;
#X connect 3 1 5 1;
#X connect 4 0 5 0;
#X connect 5 0 6 0;
#X connect 6 0 7 0;
#X connect 6 0 8 0;
#X connect 9 0 2 0;
#X connect 10 0 3 0;
#X restore 189 424 pd velOutTransform;
#X obj 162 282 f;
#X text 307 424 velocitiy Range instrument sends out.;
#X obj 161 527 noteout;
#X obj 151 116 spigot;
#X obj 135 259 t b f;
#X obj 138 454 poly 16 1;
#N canvas 534 167 798 423 noteOutSel 0;
#X obj 29 134 inlet;
#X obj 29 164 t f f;
#X obj 29 288 f;
#X obj 29 205 t b;
#X obj 95 283 f;
#X obj 95 305 outlet;
#X obj 29 185 spigot;
#X obj 74 164 == 0;
#X obj 95 200 spigot;
#X obj 128 178 > 0;
#X obj 196 187 outlet;
#X obj 95 261 spigot;
#X msg 147 244 1;
#X msg 147 264 0;
#X obj 95 221 t b b;
#X obj 147 221 del 10;
#X msg 196 164 stop;
#X obj 110 147 t b f b;
#X obj 425 171 sel 1;
#X obj 452 221 s /noteOutSel-\$1;
#X obj 425 142 change -1;
#X msg 452 196 1;
#X obj 335 269 == 3;
#X obj 335 246 r setPage;
#X obj 287 291 spigot;
#X obj 287 313 spigot;
#X obj 414 274 r editInst;
#X obj 414 296 == \$1;
#X obj 286 269 f;
#X obj 287 355 spigot;
#X obj 390 316 inlet Channel;
#X obj 390 358 == 10;
#X obj 287 405 s dumpPercName;
#X obj 335 291 t b f;
#X obj 390 388 sel 1;
#X obj 390 338 f;
#X obj 287 335 t f b;
#X obj 110 107 presFloat /noteOutSel \$1 0 noteOut(0=orig.) 127 0 3
0 noteOutSelection-\$1-Off != 3;
#X connect 0 0 1 0;
#X connect 1 0 6 0;
#X connect 1 0 8 0;
#X connect 1 1 2 1;
#X connect 2 0 5 0;
#X connect 3 0 2 0;
#X connect 4 0 5 0;
#X connect 6 0 3 0;
#X connect 7 0 6 1;
#X connect 8 0 14 0;
#X connect 9 0 8 1;
#X connect 11 0 4 0;
#X connect 12 0 11 1;
#X connect 13 0 11 1;
#X connect 14 0 13 0;
#X connect 14 1 11 0;
#X connect 14 1 15 0;
#X connect 15 0 12 0;
#X connect 16 0 10 0;
#X connect 17 0 12 0;
#X connect 17 1 7 0;
#X connect 17 1 4 1;
#X connect 17 1 9 0;
#X connect 17 2 16 0;
#X connect 18 1 21 0;
#X connect 20 0 18 0;
#X connect 21 0 19 0;
#X connect 22 0 33 0;
#X connect 23 0 22 0;
#X connect 24 0 25 0;
#X connect 25 0 36 0;
#X connect 26 0 27 0;
#X connect 27 0 25 1;
#X connect 28 0 24 0;
#X connect 29 0 32 0;
#X connect 30 0 35 1;
#X connect 31 0 29 1;
#X connect 31 0 34 0;
#X connect 33 0 28 0;
#X connect 33 1 24 1;
#X connect 34 1 32 0;
#X connect 35 0 31 0;
#X connect 36 0 29 0;
#X connect 36 1 35 0;
#X connect 37 0 17 0;
#X connect 37 0 28 0;
#X connect 37 1 20 0;
#X restore 120 403 pd noteOutSel;
#X obj 69 500 del 100;
#X msg 69 521 stop;
#X obj 300 483 t b;
#X obj 69 542 s cleanNotes;
#X obj 69 481 r \$0cleanNotes;
#X obj 69 56 t b;
#X obj 300 508 outlet channelOut;
#X obj 223 59 sel 0;
#X msg 223 103 1;
#X obj 135 226 spigot;
#X obj 231 193 spigot;
#X obj 187 137 t f f;
#X obj 187 209 != 0;
#X msg 231 213 \$1 0;
#X obj 231 235 unpack;
#X obj 264 154 == 0;
#X obj 23 503 inlet;
#X obj 264 372 outlet velIN;
#N canvas 767 208 650 586 provideNotes 0;
#X obj 113 84 unpack;
#X obj 113 106 spigot;
#X obj 161 101 == 1;
#X obj 113 234 unpack;
#X obj 113 256 spigot;
#X obj 113 374 unpack;
#X obj 113 396 spigot;
#X obj 161 251 == 2;
#X obj 161 391 == 3;
#X obj 113 52 inlet noteOn;
#X obj 403 62 inlet notOff;
#X obj 250 86 inlet velOn;
#X obj 250 110 unpack;
#X obj 250 132 spigot;
#X obj 298 127 == 1;
#X obj 250 260 unpack;
#X obj 250 282 spigot;
#X obj 250 400 unpack;
#X obj 250 422 spigot;
#X obj 298 277 == 2;
#X obj 298 417 == 3;
#X obj 113 127 f;
#X obj 113 277 f;
#X obj 113 417 f;
#X obj 113 149 pack;
#X obj 113 299 pack;
#X obj 113 439 pack;
#N canvas 0 22 688 464 Toggle1 0;
#X obj 248 102 sel provideNoteIn:On provideNoteIn:Off;
#X obj 48 118 inlet;
#X obj 48 140 spigot;
#X msg 248 123 1;
#X obj 248 175 pack f \$1;
#X msg 248 237 \; toGUI list /provideNote_1 set \$1;
#X msg 360 123 0;
#X obj 48 162 outlet;
#X obj 248 197 spigot;
#X obj 353 158 r setPage;
#X obj 353 180 == 2;
#X obj 248 60 presSymbol /provideNote_1 \$1 provideNoteIn:Off 2 /noteInBelow_1-\$1
> 0;
#X connect 0 0 3 0;
#X connect 0 1 6 0;
#X connect 1 0 2 0;
#X connect 2 0 7 0;
#X connect 3 0 2 1;
#X connect 3 0 4 0;
#X connect 4 0 8 0;
#X connect 6 0 2 1;
#X connect 6 0 4 0;
#X connect 8 0 5 0;
#X connect 9 0 10 0;
#X connect 10 0 8 1;
#X connect 11 0 0 0;
#X restore 113 172 pd Toggle1;
#N canvas 0 22 688 464 Toggle2 0;
#X obj 248 102 sel provideNoteIn:On provideNoteIn:Off;
#X obj 48 118 inlet;
#X obj 48 140 spigot;
#X msg 248 123 1;
#X obj 248 175 pack f \$1;
#X msg 360 123 0;
#X obj 48 162 outlet;
#X msg 248 247 \; toGUI list /provideNote_2 set \$1;
#X obj 248 197 spigot;
#X obj 353 158 r setPage;
#X obj 353 180 == 2;
#X obj 248 60 presSymbol /provideNote_2 \$1 provideNoteIn:Off 2 /noteInBelow_2-\$1
> 0;
#X connect 0 0 3 0;
#X connect 0 1 5 0;
#X connect 1 0 2 0;
#X connect 2 0 6 0;
#X connect 3 0 2 1;
#X connect 3 0 4 0;
#X connect 4 0 8 0;
#X connect 5 0 2 1;
#X connect 5 0 4 0;
#X connect 8 0 7 0;
#X connect 9 0 10 0;
#X connect 10 0 8 1;
#X connect 11 0 0 0;
#X restore 113 321 pd Toggle2;
#N canvas 0 22 688 464 Toggle3 0;
#X obj 248 102 sel provideNoteIn:On provideNoteIn:Off;
#X obj 48 118 inlet;
#X obj 48 140 spigot;
#X msg 248 123 1;
#X obj 248 175 pack f \$1;
#X msg 360 123 0;
#X obj 48 162 outlet;
#X msg 248 257 \; toGUI list /provideNote_3 set \$1;
#X obj 248 197 spigot;
#X obj 353 158 r setPage;
#X obj 353 180 == 2;
#X obj 248 60 presSymbol /provideNote_3 \$1 provideNoteIn:Off 2 /noteInBelow_3-\$1
> 0;
#X connect 0 0 3 0;
#X connect 0 1 5 0;
#X connect 1 0 2 0;
#X connect 2 0 6 0;
#X connect 3 0 2 1;
#X connect 3 0 4 0;
#X connect 4 0 8 0;
#X connect 5 0 2 1;
#X connect 5 0 4 0;
#X connect 8 0 7 0;
#X connect 9 0 10 0;
#X connect 10 0 8 1;
#X connect 11 0 0 0;
#X restore 113 460 pd Toggle3;
#X obj 403 86 unpack;
#X obj 403 108 spigot;
#X obj 451 103 == 1;
#X obj 403 236 unpack;
#X obj 403 258 spigot;
#X obj 403 376 unpack;
#X obj 403 398 spigot;
#X obj 451 253 == 2;
#X obj 451 393 == 3;
#X msg 403 132 0;
#X msg 403 282 0;
#X msg 403 422 0;
#X obj 113 492 s providedNotes;
#X connect 0 0 1 0;
#X connect 0 1 2 0;
#X connect 1 0 21 0;
#X connect 2 0 1 1;
#X connect 3 0 4 0;
#X connect 3 1 7 0;
#X connect 4 0 22 0;
#X connect 5 0 6 0;
#X connect 5 1 8 0;
#X connect 6 0 23 0;
#X connect 7 0 4 1;
#X connect 8 0 6 1;
#X connect 9 0 0 0;
#X connect 9 0 3 0;
#X connect 9 0 5 0;
#X connect 10 0 30 0;
#X connect 10 0 33 0;
#X connect 10 0 35 0;
#X connect 11 0 12 0;
#X connect 11 0 15 0;
#X connect 11 0 17 0;
#X connect 12 0 13 0;
#X connect 12 1 14 0;
#X connect 13 0 24 1;
#X connect 14 0 13 1;
#X connect 15 0 16 0;
#X connect 15 1 19 0;
#X connect 16 0 25 1;
#X connect 17 0 18 0;
#X connect 17 1 20 0;
#X connect 18 0 23 1;
#X connect 19 0 16 1;
#X connect 20 0 18 1;
#X connect 21 0 24 0;
#X connect 22 0 25 0;
#X connect 23 0 26 0;
#X connect 24 0 27 0;
#X connect 25 0 28 0;
#X connect 26 0 29 0;
#X connect 27 0 42 0;
#X connect 28 0 42 0;
#X connect 29 0 42 0;
#X connect 30 0 31 0;
#X connect 30 1 32 0;
#X connect 31 0 39 0;
#X connect 32 0 31 1;
#X connect 33 0 34 0;
#X connect 33 1 37 0;
#X connect 34 0 40 0;
#X connect 35 0 36 0;
#X connect 35 1 38 0;
#X connect 36 0 41 0;
#X connect 37 0 34 1;
#X connect 38 0 36 1;
#X connect 39 0 24 1;
#X connect 40 0 25 1;
#X connect 41 0 26 1;
#X restore 15 320 pd provideNotes;
#X obj 162 342 unpack;
#X obj 135 198 unpack;
#X obj 189 20 spigot;
#X obj 168 55 t f f;
#X msg 223 80 1;
#X msg 252 81 0;
#N canvas 569 49 669 199 transpose 0;
#X obj 106 36 inlet;
#X obj 106 63 +;
#X obj 106 93 outlet;
#X obj 187 55 presFloat /noteOutTrans \$1 0.5 noteOutTransposition
49 -25 3 0 /noteOutSel-\$1 == 0;
#X connect 0 0 1 0;
#X connect 1 0 2 0;
#X connect 3 0 1 1;
#X restore 162 477 pd transpose;
#X obj 286 40 presFloat /inChannel \$1 1 MIDI-In-Channel 1 0 2;
#X obj 300 463 presFloat /outChannel \$1 0 MIDI-Out-Channel 1 1 3;
#X obj 168 1 moses 16;
#X obj 200 -17 - 16;
#X connect 0 0 1 0;
#X connect 0 1 17 0;
#X connect 0 2 49 0;
#X connect 1 0 6 0;
#X connect 2 0 1 1;
#X connect 2 0 17 1;
#X connect 3 0 16 0;
#X connect 4 0 20 0;
#X connect 5 0 4 0;
#X connect 5 1 13 0;
#X connect 6 0 31 0;
#X connect 6 0 41 0;
#X connect 6 0 39 0;
#X connect 7 0 40 0;
#X connect 7 0 39 1;
#X connect 13 0 19 1;
#X connect 13 0 38 0;
#X connect 14 0 7 0;
#X connect 17 0 32 0;
#X connect 18 0 14 0;
#X connect 18 1 4 1;
#X connect 19 1 46 0;
#X connect 19 2 3 1;
#X connect 20 0 19 0;
#X connect 20 1 19 0;
#X connect 21 0 22 0;
#X connect 21 0 24 0;
#X connect 22 0 19 0;
#X connect 23 0 21 0;
#X connect 25 0 21 0;
#X connect 26 0 21 0;
#X connect 28 0 44 0;
#X connect 28 0 29 0;
#X connect 28 1 2 1;
#X connect 28 1 45 0;
#X connect 29 0 17 1;
#X connect 29 0 1 1;
#X connect 30 0 18 0;
#X connect 31 0 34 0;
#X connect 31 0 39 2;
#X connect 32 0 33 0;
#X connect 32 1 14 1;
#X connect 32 1 36 0;
#X connect 33 0 30 1;
#X connect 34 0 35 0;
#X connect 35 0 19 0;
#X connect 35 1 19 1;
#X connect 35 1 38 0;
#X connect 36 0 31 1;
#X connect 37 0 22 0;
#X connect 40 0 5 0;
#X connect 41 0 30 0;
#X connect 41 1 7 1;
#X connect 42 0 2 1;
#X connect 43 0 2 0;
#X connect 43 1 42 0;
#X connect 44 0 42 1;
#X connect 45 0 42 1;
#X connect 46 0 3 0;
#X connect 47 0 28 0;
#X connect 47 0 26 0;
#X connect 48 0 3 2;
#X connect 48 0 23 0;
#X connect 48 0 27 0;
#X connect 48 0 20 1;
#X connect 49 0 43 0;
#X connect 49 1 50 0;
#X connect 50 0 43 0;
#X restore 60 48 pd midiRouter;
#N canvas 550 23 855 847 midiSequencer 0;
#N canvas 665 165 736 717 velRand 0;
#X obj 48 264 inlet;
#X obj 206 123 t b f;
#X msg 206 143 0;
#X msg 167 143 1;
#X obj 114 160 spigot;
#X obj 114 182 pack 0 \$1;
#X obj 114 204 spigot;
#X obj 48 285 random 32;
#X obj 48 327 - 16;
#X obj 114 310 / 2;
#X obj 48 375 moses 1;
#X obj 48 306 + 1;
#X obj 48 447 random 32;
#X obj 48 427 t b;
#X obj 48 474 + 1;
#X obj 87 395 moses 128;
#X obj 138 437 random;
#X obj 48 498 i;
#X obj 48 550 outlet;
#X obj 48 353 + 95;
#X obj 138 417 t b;
#X obj 138 457 +;
#X obj 171 352 t b f;
#X obj 171 396 - 32;
#X obj 171 324 i;
#X msg 171 374 127;
#X obj 167 101 moses 1;
#X obj 175 187 == 5;
#X obj 175 165 r dumpInst-\$1;
#X obj 30 398 moses 1;
#X obj 20 437 abs;
#X obj 300 154 spigot;
#X obj 34 93 sel 0;
#X obj 34 71 unpack;
#X obj 34 46 r providedNotes;
#X msg 300 177 \; toGUI list /velCenterLabel velocityCenterSetFromProvidedNotes
;
#X msg 114 231 \; toGUI list /velCenterLabel velocityCenterFromProvidedNotes:
\$1;
#N canvas 675 84 682 282 velOutTransform 0;
#X obj 29 -4 inlet;
#X obj 29 21 / 127;
#X obj 99 26 - 1;
#X obj 166 9 t b f;
#X obj 29 43 * 127;
#X obj 29 83 + 0;
#X obj 29 105 i;
#X obj 29 127 outlet;
#X obj 99 -63 r /velOutBelowTrans-\$1;
#X obj 166 -34 r /velOutAboveTrans-\$1;
#X obj 99 -40 * 127;
#X obj 99 -18 + 1;
#X obj 166 -12 * 127;
#X connect 0 0 1 0;
#X connect 1 0 4 0;
#X connect 2 0 4 1;
#X connect 3 0 2 0;
#X connect 3 1 2 1;
#X connect 3 1 5 1;
#X connect 4 0 5 0;
#X connect 5 0 6 0;
#X connect 6 0 7 0;
#X connect 8 0 10 0;
#X connect 9 0 12 0;
#X connect 10 0 11 0;
#X connect 11 0 2 0;
#X connect 12 0 3 0;
#X restore 6 126 pd velOutTransform;
#X obj 6 148 s \$1-providedVel;
#X obj 167 123 t b b;
#X obj 74 175 f;
#X obj 167 48 presFloat /velCenter \$1 0.742188 velocityCenter(0=providedNotes)
128 0 5 0 /instSeqLength-\$1 > 0;
#X obj 171 280 presFloat /velRange \$1 0.25 velocityRandomRange 126
1 5 0 /instSeqLength-\$1 > 0;
#X connect 0 0 7 0;
#X connect 1 0 2 0;
#X connect 1 1 19 1;
#X connect 2 0 4 1;
#X connect 3 0 4 1;
#X connect 4 0 5 0;
#X connect 4 0 19 1;
#X connect 5 0 6 0;
#X connect 6 0 36 0;
#X connect 7 0 11 0;
#X connect 8 0 19 0;
#X connect 9 0 8 1;
#X connect 10 0 29 0;
#X connect 10 1 15 0;
#X connect 11 0 8 0;
#X connect 12 0 14 0;
#X connect 13 0 12 0;
#X connect 14 0 17 0;
#X connect 15 0 17 0;
#X connect 15 1 20 0;
#X connect 16 0 21 0;
#X connect 17 0 18 0;
#X connect 19 0 10 0;
#X connect 20 0 16 0;
#X connect 21 0 14 1;
#X connect 22 0 25 0;
#X connect 22 1 23 1;
#X connect 23 0 21 1;
#X connect 24 0 22 0;
#X connect 24 0 16 1;
#X connect 25 0 23 0;
#X connect 26 0 39 0;
#X connect 26 1 1 0;
#X connect 27 0 6 1;
#X connect 27 0 31 1;
#X connect 28 0 27 0;
#X connect 29 0 30 0;
#X connect 29 1 13 0;
#X connect 30 0 17 0;
#X connect 31 0 35 0;
#X connect 32 1 37 0;
#X connect 33 1 32 0;
#X connect 34 0 33 0;
#X connect 37 0 4 0;
#X connect 37 0 38 0;
#X connect 37 0 40 1;
#X connect 39 0 3 0;
#X connect 39 0 31 0;
#X connect 39 1 40 0;
#X connect 40 0 19 1;
#X connect 41 0 26 0;
#X connect 42 0 7 1;
#X connect 42 0 9 0;
#X connect 42 0 12 1;
#X connect 42 0 24 0;
#X restore 95 614 pd velRand;
#X obj 46 268 - 1;
#X obj 46 291 tabread seq-\$1;
#X obj 46 313 sel 0;
#X obj 73 440 random 100;
#X obj 73 460 moses;
#X obj 190 699 inlet Channel;
#X obj 73 716 pack f f 0;
#X obj 73 334 t b f f;
#X obj 73 639 makenote;
#X obj 178 380 *;
#X obj 92 397 * 1;
#X obj 92 419 +;
#X obj 123 402 *;
#X obj 264 341 t b f;
#N canvas 176 31 1202 700 randNoteLengths 0;
#X obj 610 117 unpack f f f f f;
#X obj 364 136 inlet;
#X obj 364 158 random 100;
#X obj 610 159 f 0;
#X obj 633 182 f 0;
#X obj 703 250 f 0;
#X obj 629 392 r storePreset;
#X obj 629 510 list trim;
#X obj 629 532 s storeToPreset;
#X obj 572 287 +;
#X obj 546 265 +;
#X obj 523 242 +;
#X obj 498 219 +;
#X floatatom 572 309 5 0 0 0 - - -, f 5;
#X floatatom 536 287 5 0 0 0 - - -, f 5;
#X floatatom 503 264 5 0 0 0 - - -, f 5;
#X floatatom 478 241 5 0 0 0 - - -, f 5;
#X floatatom 454 218 5 0 0 0 - - -, f 5;
#X obj 474 196 f;
#X obj 364 213 moses;
#X obj 391 236 moses;
#X obj 418 259 moses;
#X obj 445 282 moses;
#X obj 472 304 moses;
#X obj 273 229 r 1tel;
#X obj 258 252 f;
#X obj 364 235 t b;
#X obj 391 258 t b;
#X obj 418 281 t b;
#X obj 445 304 t b;
#X obj 472 326 t b;
#X obj 297 254 r 2tel;
#X obj 282 275 f;
#X obj 322 277 r 4tel;
#X obj 307 298 f;
#X obj 387 342 r songPosPre;
#X obj 387 321 t b;
#X obj 357 297 r 8telGr;
#X obj 354 321 f;
#X obj 322 318 f;
#X obj 322 338 -;
#X obj 307 381 f;
#X obj 280 338 del;
#X obj 295 318 - 1;
#X obj 341 362 r 16telGr;
#X obj 413 386 r 16telGrPost;
#X obj 341 384 f;
#X obj 387 402 f;
#X obj 326 440 f;
#X obj 387 423 -;
#X obj 387 383 del;
#X obj 402 362 - 1;
#X obj 474 176 * 100;
#X obj 513 199 * 100;
#X obj 538 222 * 100;
#X obj 561 245 * 100;
#X obj 587 267 * 100;
#X obj 808 -17 r dumpInst-\$1;
#X obj 808 131 sel 1;
#X obj 808 93 == 4;
#X obj 656 205 f 0.75;
#X obj 679 228 f 0.25;
#X obj 808 163 list 0 0 0.75 0.25 0;
#N canvas 358 23 1308 799 100% 0;
#X obj 82 -40 inlet;
#X obj 98 646 outlet;
#X obj 82 2 unpack f f f f f;
#X obj 82 24 * 100;
#X obj 82 46 i;
#X obj 192 19 * 100;
#X obj 192 41 i;
#X obj 302 19 * 100;
#X obj 302 41 i;
#X obj 412 19 * 100;
#X obj 412 41 i;
#X obj 522 19 * 100;
#X obj 522 41 i;
#X obj 624 276 f;
#X obj 663 277 + 1;
#X obj 663 299 t f f f;
#X obj 702 239 sel 4;
#X msg 702 259 0;
#X obj 663 345 +;
#X obj 682 323 >=;
#X msg 121 115 1;
#X msg 231 110 2;
#X msg 341 110 3;
#X msg 451 110 4;
#X msg 561 110 5;
#X obj 121 137 s \$0keep;
#X obj 231 132 s \$0keep;
#X obj 341 132 s \$0keep;
#X obj 451 132 s \$0keep;
#X obj 561 132 s \$0keep;
#X obj 718 306 r \$0keep;
#X obj 341 87 change 75;
#X obj 451 87 change 25;
#X obj 561 87 change 0;
#X obj 231 87 change 0;
#X obj 121 92 change 0;
#X obj 82 171 expr $f1 + $f2 + $f3 + $f4 + $f5;
#X obj 82 215 sel 1;
#X obj 132 215 sel 1;
#X msg 132 237 1;
#X obj 132 259 t b f;
#X msg 82 237 -1;
#X obj 82 259 t b f;
#X obj 268 362 sel 1 2 3 4 5;
#X obj 84 468 f;
#X obj 194 468 f;
#X obj 304 468 f;
#X obj 414 468 f;
#X obj 524 468 f;
#X obj 175 276 s \$0add;
#X obj 116 451 r \$0add;
#X obj 310 154 expr $f1 + $f2 + $f3 + $f4 + $f5;
#X obj 524 388 f 0;
#X obj 408 388 f 25;
#X obj 194 388 f 0;
#X obj 84 388 f 0;
#X obj 310 198 sel 100;
#X obj 558 590 f 0;
#X obj 442 590 f 25;
#X obj 332 590 f 75;
#X obj 228 590 f 0;
#X obj 118 590 f 0;
#X obj 310 573 t b b b b b;
#X obj 132 193 < 100;
#X obj 82 193 > 100;
#X obj 84 410 > 0;
#X obj 84 430 sel 1 0;
#X obj 194 410 > 0;
#X obj 194 430 sel 1 0;
#X obj 298 410 > 0;
#X obj 298 430 sel 1 0;
#X obj 408 410 > 0;
#X obj 408 430 sel 1 0;
#X obj 524 410 > 0;
#X obj 524 430 sel 1 0;
#X obj 84 490 +;
#X obj 194 490 +;
#X obj 304 490 +;
#X obj 414 490 +;
#X obj 524 490 +;
#X obj 298 388 f 75;
#X obj 82 70 t f f f f;
#X obj 192 65 t f f f f;
#X obj 302 65 t f f f f;
#X obj 412 65 t f f f f;
#X obj 522 65 t f f f f;
#X obj 558 307 f;
#X obj 448 323 f;
#X obj 338 306 f;
#X obj 228 306 f;
#X obj 118 306 f;
#X obj 524 510 t b b f;
#X obj 414 515 t b b f;
#X obj 194 512 t b b f;
#X obj 84 512 t f b;
#X obj 310 176 pipe 1;
#X obj 624 447 del 1;
#X obj 21 629 pack f f f f f;
#X obj 118 612 / 100;
#X obj 558 612 / 100;
#X obj 442 612 / 100;
#X obj 332 612 / 100;
#X obj 228 612 / 100;
#X msg 622 70 set \$1;
#X msg 482 70 set \$1;
#X msg 362 70 set \$1;
#X msg 252 70 set \$1;
#X msg 142 70 set \$1;
#X obj 564 529 moses 0;
#X msg 564 551 0;
#X obj 453 532 moses 0;
#X msg 453 554 0;
#X obj 343 531 moses 0;
#X msg 343 553 0;
#X obj 234 533 moses 0;
#X msg 234 555 0;
#X obj 84 533 moses 0;
#X msg 84 555 0;
#X obj 747 492 inlet;
#X obj 862 654 spigot;
#X obj 862 675 s toGUI;
#X obj 747 573 t b b b b b f;
#X obj 895 577 == 4;
#X obj 364 665 > 99;
#X obj 330 692 spigot;
#X obj 364 740 t b;
#X msg 364 762 1;
#X obj 224 670 > 99;
#X obj 224 701 spigot;
#X obj 114 670 > 99;
#X obj 114 701 spigot;
#X obj 462 658 > 99;
#X obj 433 696 spigot;
#X obj 567 675 > 99;
#X obj 545 707 spigot;
#X obj 304 512 t b f b;
#X floatatom 289 547 5 0 0 0 - - -, f 5;
#X msg 433 723 1;
#X obj 433 745 pipe 1;
#X msg 601 607 list /wholeLabel Notes: \$1;
#X msg 771 607 list /halfLabel Notes: \$1;
#X msg 931 607 list /quarterLabel Notes: \$1;
#X msg 819 631 list /sixteenLabel Notes: \$1;
#X msg 639 631 list /eighthLabel Notes: \$1;
#X obj 747 537 spigot;
#X obj 859 520 > 0;
#X obj 859 468 r /instSeqLength-\$1;
#X obj 747 514 change;
#X obj 859 490 route float;
#X connect 0 0 2 0;
#X connect 2 0 3 0;
#X connect 2 1 5 0;
#X connect 2 2 7 0;
#X connect 2 3 9 0;
#X connect 2 4 11 0;
#X connect 3 0 4 0;
#X connect 4 0 81 0;
#X connect 5 0 6 0;
#X connect 6 0 82 0;
#X connect 7 0 8 0;
#X connect 8 0 83 0;
#X connect 9 0 10 0;
#X connect 10 0 84 0;
#X connect 11 0 12 0;
#X connect 12 0 85 0;
#X connect 13 0 14 0;
#X connect 14 0 15 0;
#X connect 15 0 18 0;
#X connect 15 1 19 0;
#X connect 15 2 16 0;
#X connect 16 0 17 0;
#X connect 16 1 13 1;
#X connect 17 0 13 1;
#X connect 18 0 43 0;
#X connect 19 0 18 1;
#X connect 20 0 25 0;
#X connect 21 0 26 0;
#X connect 22 0 27 0;
#X connect 23 0 28 0;
#X connect 24 0 29 0;
#X connect 30 0 19 1;
#X connect 31 0 22 0;
#X connect 32 0 23 0;
#X connect 33 0 24 0;
#X connect 34 0 21 0;
#X connect 35 0 20 0;
#X connect 36 0 63 0;
#X connect 36 0 64 0;
#X connect 36 0 56 0;
#X connect 37 0 41 0;
#X connect 38 0 39 0;
#X connect 39 0 40 0;
#X connect 40 0 13 0;
#X connect 40 1 49 0;
#X connect 41 0 42 0;
#X connect 42 0 13 0;
#X connect 42 1 49 0;
#X connect 43 0 55 0;
#X connect 43 1 54 0;
#X connect 43 2 80 0;
#X connect 43 3 53 0;
#X connect 43 4 52 0;
#X connect 44 0 75 0;
#X connect 45 0 76 0;
#X connect 46 0 77 0;
#X connect 47 0 78 0;
#X connect 48 0 79 0;
#X connect 50 0 44 1;
#X connect 50 0 45 1;
#X connect 50 0 46 1;
#X connect 50 0 47 1;
#X connect 50 0 48 1;
#X connect 51 0 56 0;
#X connect 51 0 95 0;
#X connect 52 0 73 0;
#X connect 53 0 71 0;
#X connect 54 0 67 0;
#X connect 55 0 65 0;
#X connect 56 0 62 0;
#X connect 57 0 99 0;
#X connect 57 0 103 0;
#X connect 57 0 142 0;
#X connect 57 0 133 0;
#X connect 58 0 100 0;
#X connect 58 0 104 0;
#X connect 58 0 143 0;
#X connect 58 0 131 0;
#X connect 59 0 101 0;
#X connect 59 0 105 0;
#X connect 59 0 141 0;
#X connect 59 0 123 0;
#X connect 60 0 102 0;
#X connect 60 0 106 0;
#X connect 60 0 140 0;
#X connect 60 0 127 0;
#X connect 61 0 98 0;
#X connect 61 0 107 0;
#X connect 61 0 139 0;
#X connect 61 0 129 0;
#X connect 62 0 61 0;
#X connect 62 1 60 0;
#X connect 62 2 59 0;
#X connect 62 3 58 0;
#X connect 62 4 57 0;
#X connect 63 0 38 0;
#X connect 64 0 37 0;
#X connect 65 0 66 0;
#X connect 66 0 44 0;
#X connect 66 1 96 0;
#X connect 67 0 68 0;
#X connect 68 0 45 0;
#X connect 68 1 96 0;
#X connect 69 0 70 0;
#X connect 70 0 46 0;
#X connect 70 1 96 0;
#X connect 71 0 72 0;
#X connect 72 0 47 0;
#X connect 72 1 96 0;
#X connect 73 0 74 0;
#X connect 74 0 48 0;
#X connect 74 1 96 0;
#X connect 75 0 94 0;
#X connect 76 0 93 0;
#X connect 77 0 135 0;
#X connect 78 0 92 0;
#X connect 79 0 91 0;
#X connect 80 0 69 0;
#X connect 81 0 36 0;
#X connect 81 1 55 1;
#X connect 81 1 75 1;
#X connect 81 2 35 0;
#X connect 81 3 61 1;
#X connect 81 3 90 1;
#X connect 81 3 130 0;
#X connect 82 0 36 1;
#X connect 82 1 54 1;
#X connect 82 1 76 1;
#X connect 82 2 34 0;
#X connect 82 3 60 1;
#X connect 82 3 89 1;
#X connect 82 3 128 0;
#X connect 83 0 36 2;
#X connect 83 1 77 1;
#X connect 83 1 80 1;
#X connect 83 2 31 0;
#X connect 83 3 59 1;
#X connect 83 3 88 1;
#X connect 83 3 124 0;
#X connect 84 0 36 3;
#X connect 84 1 53 1;
#X connect 84 1 78 1;
#X connect 84 2 32 0;
#X connect 84 3 58 1;
#X connect 84 3 87 1;
#X connect 84 3 132 0;
#X connect 85 0 36 4;
#X connect 85 1 52 1;
#X connect 85 1 79 1;
#X connect 85 2 33 0;
#X connect 85 3 57 1;
#X connect 85 3 86 1;
#X connect 85 3 134 0;
#X connect 86 0 51 4;
#X connect 86 0 57 1;
#X connect 86 0 79 1;
#X connect 87 0 51 3;
#X connect 87 0 58 1;
#X connect 87 0 78 1;
#X connect 88 0 51 2;
#X connect 88 0 59 1;
#X connect 88 0 77 1;
#X connect 89 0 51 1;
#X connect 89 0 60 1;
#X connect 89 0 76 1;
#X connect 90 0 51 0;
#X connect 90 0 61 1;
#X connect 90 0 75 1;
#X connect 91 0 90 0;
#X connect 91 1 87 0;
#X connect 91 1 88 0;
#X connect 91 1 89 0;
#X connect 91 2 108 0;
#X connect 92 0 90 0;
#X connect 92 1 86 0;
#X connect 92 1 88 0;
#X connect 92 1 89 0;
#X connect 92 2 110 0;
#X connect 93 0 90 0;
#X connect 93 1 86 0;
#X connect 93 1 87 0;
#X connect 93 1 88 0;
#X connect 93 2 114 0;
#X connect 94 0 116 0;
#X connect 94 1 86 0;
#X connect 94 1 87 0;
#X connect 94 1 88 0;
#X connect 94 1 89 0;
#X connect 95 0 63 0;
#X connect 95 0 64 0;
#X connect 96 0 13 0;
#X connect 97 0 1 0;
#X connect 98 0 97 0;
#X connect 99 0 97 4;
#X connect 100 0 97 3;
#X connect 101 0 97 2;
#X connect 102 0 97 1;
#X connect 103 0 33 0;
#X connect 104 0 32 0;
#X connect 105 0 31 0;
#X connect 106 0 34 0;
#X connect 107 0 35 0;
#X connect 108 0 109 0;
#X connect 108 1 86 0;
#X connect 109 0 86 0;
#X connect 110 0 111 0;
#X connect 110 1 87 0;
#X connect 111 0 87 0;
#X connect 112 0 113 0;
#X connect 112 1 88 0;
#X connect 112 1 136 0;
#X connect 113 0 88 0;
#X connect 114 0 115 0;
#X connect 114 1 89 0;
#X connect 115 0 89 0;
#X connect 116 0 117 0;
#X connect 116 1 90 0;
#X connect 117 0 90 0;
#X connect 118 0 147 0;
#X connect 119 0 120 0;
#X connect 121 0 61 0;
#X connect 121 1 60 0;
#X connect 121 2 59 0;
#X connect 121 3 58 0;
#X connect 121 4 57 0;
#X connect 121 5 122 0;
#X connect 122 0 119 1;
#X connect 123 0 124 1;
#X connect 124 0 125 0;
#X connect 125 0 126 0;
#X connect 126 0 53 0;
#X connect 127 0 128 1;
#X connect 128 0 125 0;
#X connect 129 0 130 1;
#X connect 130 0 125 0;
#X connect 131 0 132 1;
#X connect 132 0 137 0;
#X connect 133 0 134 1;
#X connect 134 0 137 0;
#X connect 135 0 90 0;
#X connect 135 1 112 0;
#X connect 135 2 86 0;
#X connect 135 2 87 0;
#X connect 135 2 89 0;
#X connect 137 0 138 0;
#X connect 138 0 80 0;
#X connect 139 0 119 0;
#X connect 140 0 119 0;
#X connect 141 0 119 0;
#X connect 142 0 119 0;
#X connect 143 0 119 0;
#X connect 144 0 121 0;
#X connect 145 0 144 1;
#X connect 146 0 148 0;
#X connect 147 0 144 0;
#X connect 148 0 145 0;
#X restore 650 93 pd 100%;
#X obj 629 488 list prepend add /randNoteVals-\$1;
#X obj 878 140 t a b;
#X obj 808 276 s toGUI;
#X obj 808 255 list prepend /randNoteVals set;
#X obj 878 110 spigot;
#X obj 629 465 list;
#X obj 170 352 + 10;
#X obj 170 374 *;
#X obj 185 122 / 100;
#X obj 212 530 / 100;
#X obj 170 396 t f f;
#X obj 170 468 -;
#X obj 197 421 *;
#X obj 197 441 t f b f;
#X obj 216 464 random;
#X obj 170 490 +;
#X obj 170 511 outlet;
#X obj 808 47 t f f;
#X obj 610 71 r /randNoteVals-\$1;
#X obj 927 -12 r setPage;
#X obj 999 37 r editInst;
#X obj 999 59 == \$1;
#N canvas 554 330 847 389 dependant 0;
#X obj 43 92 inlet;
#X obj 43 114 spigot 1;
#X obj 43 136 outlet;
#X obj 132 119 f 1;
#X obj 132 141 spigot;
#X obj 132 163 spigot;
#X obj 287 102 r editInst;
#X obj 190 118 r setPage;
#X obj 190 162 t f f;
#X obj 190 184 sel 1;
#N canvas 0 22 450 300 depender 0;
#X obj 10 74 outlet;
#X obj 10 6 r /instSeqLength-\$1;
#X obj 10 52 > 0;
#X obj 10 28 route float;
#X connect 1 0 3 0;
#X connect 2 0 0 0;
#X connect 3 0 2 0;
#X restore 132 97 pd depender;
#X obj 287 124 == \$1;
#X msg 132 213 \; toGUI list /randNoteVals enable \$1 \; toGUI list
/randNoteValsLabel enable \$1 \; toGUI list /wholeLabel enable \$1
\; toGUI list /halfLabel enable \$1 \; toGUI list /wholeLabel enable
\$1 \; toGUI list /quarterLabel enable \$1 \; toGUI list /eighthLabel
enable \$1 \; toGUI list /sixteenLabel enable \$1 \;;
#X obj 190 140 == 4;
#X connect 0 0 1 0;
#X connect 1 0 2 0;
#X connect 3 0 4 0;
#X connect 4 0 5 0;
#X connect 5 0 12 0;
#X connect 6 0 11 0;
#X connect 7 0 13 0;
#X connect 8 0 9 0;
#X connect 8 1 5 1;
#X connect 9 0 3 0;
#X connect 10 0 1 1;
#X connect 10 0 3 0;
#X connect 11 0 4 1;
#X connect 13 0 8 0;
#X restore 629 430 pd dependant;
#X obj 927 76 spigot;
#X obj 808 227 spigot;
#X obj 921 230 > 0;
#X obj 921 188 r /instSeqLength-\$1;
#X msg 927 54 4;
#X obj 927 32 sel 4;
#X msg 808 26 4;
#X obj 808 4 sel 4;
#X obj 212 488 presFloat /legStacRand \$1 0.5 random 100 0 4 0 /instSeqLength-\$1
> 0;
#X obj 185 80 presFloat /legStac \$1 1 legato/staccato 100 0 4 0 /instSeqLength-\$1
> 0;
#X obj 921 210 route float;
#X connect 0 0 3 0;
#X connect 0 1 4 0;
#X connect 0 2 60 0;
#X connect 0 3 61 0;
#X connect 0 4 5 0;
#X connect 1 0 2 0;
#X connect 2 0 19 0;
#X connect 3 0 52 0;
#X connect 4 0 53 0;
#X connect 5 0 56 0;
#X connect 6 0 86 0;
#X connect 7 0 8 0;
#X connect 9 0 13 0;
#X connect 9 0 23 1;
#X connect 10 0 9 0;
#X connect 10 0 14 0;
#X connect 10 0 22 1;
#X connect 11 0 10 0;
#X connect 11 0 15 0;
#X connect 11 0 21 1;
#X connect 12 0 11 0;
#X connect 12 0 16 0;
#X connect 12 0 20 1;
#X connect 18 0 17 0;
#X connect 18 0 12 0;
#X connect 18 0 19 1;
#X connect 19 0 26 0;
#X connect 19 1 20 0;
#X connect 20 0 27 0;
#X connect 20 1 21 0;
#X connect 21 0 28 0;
#X connect 21 1 22 0;
#X connect 22 0 29 0;
#X connect 22 1 23 0;
#X connect 23 0 30 0;
#X connect 24 0 25 1;
#X connect 25 0 70 0;
#X connect 26 0 25 0;
#X connect 27 0 32 0;
#X connect 28 0 34 0;
#X connect 29 0 41 0;
#X connect 30 0 48 0;
#X connect 31 0 32 1;
#X connect 32 0 70 0;
#X connect 33 0 34 1;
#X connect 33 0 39 1;
#X connect 34 0 70 0;
#X connect 35 0 36 0;
#X connect 36 0 38 0;
#X connect 36 0 42 0;
#X connect 36 0 46 0;
#X connect 36 0 50 0;
#X connect 37 0 38 0;
#X connect 37 0 43 0;
#X connect 37 0 49 1;
#X connect 37 0 51 0;
#X connect 38 0 40 1;
#X connect 38 0 41 1;
#X connect 39 0 40 0;
#X connect 40 0 41 1;
#X connect 41 0 70 0;
#X connect 42 0 39 0;
#X connect 43 0 42 1;
#X connect 44 0 46 0;
#X connect 45 0 47 1;
#X connect 46 0 48 1;
#X connect 47 0 49 0;
#X connect 48 0 70 0;
#X connect 49 0 48 1;
#X connect 50 0 47 0;
#X connect 51 0 50 1;
#X connect 52 0 18 0;
#X connect 53 0 12 1;
#X connect 54 0 11 1;
#X connect 55 0 10 1;
#X connect 56 0 9 1;
#X connect 57 0 94 0;
#X connect 58 0 62 0;
#X connect 59 0 58 0;
#X connect 59 0 68 1;
#X connect 60 0 54 0;
#X connect 61 0 55 0;
#X connect 62 0 88 0;
#X connect 63 0 68 0;
#X connect 63 0 0 0;
#X connect 63 0 69 1;
#X connect 64 0 7 0;
#X connect 65 0 62 0;
#X connect 65 1 62 1;
#X connect 67 0 66 0;
#X connect 68 0 65 0;
#X connect 69 0 64 0;
#X connect 70 0 71 0;
#X connect 71 0 74 0;
#X connect 72 0 71 1;
#X connect 73 0 76 1;
#X connect 74 0 75 0;
#X connect 74 1 76 0;
#X connect 75 0 79 0;
#X connect 76 0 77 0;
#X connect 77 0 75 1;
#X connect 77 1 78 0;
#X connect 77 2 78 1;
#X connect 78 0 79 1;
#X connect 79 0 80 0;
#X connect 81 0 59 0;
#X connect 81 1 63 1;
#X connect 82 0 63 0;
#X connect 83 0 92 0;
#X connect 84 0 85 0;
#X connect 85 0 87 1;
#X connect 86 0 69 0;
#X connect 87 0 63 1;
#X connect 88 0 67 0;
#X connect 89 0 88 1;
#X connect 90 0 97 0;
#X connect 91 0 87 0;
#X connect 92 0 91 0;
#X connect 93 0 81 0;
#X connect 94 0 93 0;
#X connect 95 0 73 0;
#X connect 96 0 72 0;
#X connect 97 0 89 0;
#X restore 127 581 pd randNoteLengths;
#X obj 73 736 noteout;
#X obj 300 694 i;
#X obj 300 716 pack;
#X obj 300 738 pgmout;
#N canvas 626 129 912 510 overlap 0;
#X obj 53 177 inlet;
#X obj 200 46 r /seqOverlap-\$1;
#X obj 200 163 route 0 1 2;
#X obj 200 366 r dumpInst-\$1;
#X obj 200 408 == 4;
#X obj 200 260 unpack;
#X obj 233 281 sel 1;
#X obj 233 324 spigot;
#X obj 233 345 s toGUI;
#X obj 240 220 unpack;
#X obj 273 241 sel 1;
#X obj 280 180 unpack;
#X obj 313 201 sel 1;
#X msg 363 203 list /seqOverlap set 2 0 1;
#X msg 279 284 list /seqOverlap set 0 0 1;
#X msg 319 244 list /seqOverlap set 1 0 1;
#X msg 458 284 symbol Block;
#X msg 535 202 symbol Off;
#X obj 668 63 list 0 0 1;
#X obj 668 17 r storePreset;
#X obj 668 85 list prepend add /seqOverlap-\$1;
#X obj 668 107 list trim;
#X obj 668 129 s storeToPreset;
#X obj 200 454 sel 1;
#X obj 53 404 outlet;
#X obj 53 227 f;
#X msg 115 180 1;
#X msg 115 203 2;
#X msg 115 225 3;
#X obj 53 249 sel 1 2 3;
#X obj 53 271 spigot;
#X obj 120 279 inlet;
#X obj 120 321 t f b;
#X msg 86 328 1;
#X msg 180 254 0;
#X obj 120 300 spigot;
#X obj 163 283 == 1;
#X obj 114 404 outlet;
#X obj 87 374 t b b;
#X obj 309 73 r inst-\$1-init;
#X obj 200 430 t f f;
#X obj 200 68 t b a;
#X obj 200 90 list 0 0 1;
#X msg 273 263 list /seqOverlap set 0 0 0 \, list /seqOverlap set 2
0 0;
#X msg 233 303 list /seqOverlap set 1 0 0 \, list /seqOverlap set 2
0 0;
#X msg 313 223 list /seqOverlap set 0 0 0 \, list /seqOverlap set 1
0 0;
#X msg 489 244 symbol Polyphon;
#X msg 568 307 list /seqOverlapLabel simultaneity: \$1;
#X obj 157 220 outlet;
#X obj 120 343 del;
#N canvas 629 184 847 389 dependant 0;
#X obj 43 92 inlet;
#X obj 43 114 spigot 1;
#X obj 43 136 outlet;
#N canvas 459 23 450 300 \$0-depender 0;
#X obj 10 80 outlet;
#X obj 10 60 > 0;
#X obj 10 10 r /instSeqLength-\$1;
#X obj 10 32 route float;
#X connect 1 0 0 0;
#X connect 2 0 3 0;
#X connect 3 0 1 0;
#X restore 132 97 pd \$0-depender;
#X obj 132 119 f 1;
#X obj 132 141 spigot;
#X obj 132 163 spigot;
#X obj 287 102 r editInst;
#X obj 190 118 r setPage;
#X obj 190 162 t f f;
#X obj 190 184 sel 1;
#X msg 132 213 \; toGUI list /seqOverlap enable \$1 \; toGUI list /seqOverlapLabel
enable \$1;
#X obj 287 124 == \$1;
#X obj 190 140 == 4;
#X connect 0 0 1 0;
#X connect 1 0 2 0;
#X connect 3 0 1 1;
#X connect 3 0 4 0;
#X connect 4 0 5 0;
#X connect 5 0 6 0;
#X connect 6 0 11 0;
#X connect 7 0 12 0;
#X connect 8 0 13 0;
#X connect 9 0 10 0;
#X connect 9 1 6 1;
#X connect 10 0 4 0;
#X connect 12 0 5 1;
#X connect 13 0 9 0;
#X restore 668 38 pd dependant;
#N canvas 743 88 847 389 dependant 0;
#X obj 43 92 inlet;
#X obj 43 114 spigot 1;
#X obj 43 136 outlet;
#N canvas 0 22 450 300 \$0-depender 0;
#X obj 10 80 outlet;
#X obj 10 60 > 0;
#X obj 10 10 r /instSeqLength-\$1;
#X obj 10 32 route float;
#X connect 1 0 0 0;
#X connect 2 0 3 0;
#X connect 3 0 1 0;
#X restore 132 97 pd \$0-depender;
#X obj 132 119 f 1;
#X obj 132 141 spigot;
#X obj 132 163 spigot;
#X obj 287 102 r editInst;
#X obj 190 118 r setPage;
#X obj 190 162 t f f;
#X obj 190 184 sel 1;
#X msg 132 213 \; toGUI list /seqOverlap enable \$1 \; toGUI list /seqOverlapLabel
enable \$1;
#X obj 287 124 == \$1;
#X obj 190 140 == 4;
#X connect 0 0 1 0;
#X connect 1 0 2 0;
#X connect 3 0 1 1;
#X connect 3 0 4 0;
#X connect 4 0 5 0;
#X connect 5 0 6 0;
#X connect 6 0 11 0;
#X connect 7 0 12 0;
#X connect 8 0 13 0;
#X connect 9 0 10 0;
#X connect 9 1 6 1;
#X connect 10 0 4 0;
#X connect 12 0 5 1;
#X connect 13 0 9 0;
#X restore 200 388 pd dependant;
#X connect 0 0 25 0;
#X connect 1 0 41 0;
#X connect 1 0 18 1;
#X connect 2 0 5 0;
#X connect 2 0 26 0;
#X connect 2 1 9 0;
#X connect 2 1 27 0;
#X connect 2 2 11 0;
#X connect 2 2 28 0;
#X connect 3 0 51 0;
#X connect 4 0 40 0;
#X connect 5 1 6 0;
#X connect 6 0 44 0;
#X connect 6 0 16 0;
#X connect 6 0 14 0;
#X connect 6 1 14 0;
#X connect 7 0 8 0;
#X connect 9 1 10 0;
#X connect 10 0 43 0;
#X connect 10 0 46 0;
#X connect 10 0 15 0;
#X connect 10 1 15 0;
#X connect 11 1 12 0;
#X connect 12 0 45 0;
#X connect 12 0 17 0;
#X connect 12 0 13 0;
#X connect 12 1 13 0;
#X connect 13 0 7 0;
#X connect 14 0 7 0;
#X connect 15 0 7 0;
#X connect 16 0 47 0;
#X connect 17 0 47 0;
#X connect 18 0 20 0;
#X connect 19 0 50 0;
#X connect 20 0 21 0;
#X connect 21 0 22 0;
#X connect 23 0 42 0;
#X connect 25 0 29 0;
#X connect 26 0 25 1;
#X connect 26 0 36 0;
#X connect 26 0 48 0;
#X connect 27 0 25 1;
#X connect 27 0 36 0;
#X connect 27 0 48 0;
#X connect 28 0 25 1;
#X connect 28 0 36 0;
#X connect 28 0 48 0;
#X connect 29 0 30 0;
#X connect 29 1 24 0;
#X connect 29 2 38 0;
#X connect 30 0 24 0;
#X connect 31 0 35 0;
#X connect 32 0 49 0;
#X connect 32 1 34 0;
#X connect 33 0 30 1;
#X connect 34 0 30 1;
#X connect 35 0 32 0;
#X connect 36 0 35 1;
#X connect 38 0 24 0;
#X connect 38 1 37 0;
#X connect 39 0 33 0;
#X connect 39 0 42 0;
#X connect 40 0 23 0;
#X connect 40 1 7 1;
#X connect 41 0 42 0;
#X connect 41 1 42 1;
#X connect 42 0 2 0;
#X connect 43 0 7 0;
#X connect 44 0 7 0;
#X connect 45 0 7 0;
#X connect 46 0 47 0;
#X connect 47 0 7 0;
#X connect 49 0 33 0;
#X connect 50 0 18 0;
#X connect 51 0 4 0;
#X restore 73 501 pd overlap;
#X obj 73 480 t b;
#X obj 73 663 poly 16;
#X msg 138 646 stop;
#X obj 92 375 * 100;
#X obj 300 646 t f b;
#X obj 300 668 pipe 100;
#X msg 369 663 clear;
#X obj 622 577 r dumpPrg;
#X obj 622 685 f;
#X obj 622 707 s prgDump;
#X obj 622 621 ==;
#X obj 622 599 unpack;
#X obj 655 620 != \$1;
#X obj 622 643 sel 1;
#X obj 622 663 spigot;
#N canvas 363 250 1149 784 seqRandNote 0;
#X obj 31 105 inlet;
#X obj 31 260 spigot;
#X obj 105 122 spigot;
#X obj 138 74 < 1;
#X obj 89 243 > 0;
#X obj 31 281 f;
#X obj 31 749 outlet;
#X obj 320 311 list length;
#X obj 175 369 + 1;
#X obj 122 679 random;
#X obj 105 732 +;
#X msg 144 367 set;
#X msg 155 392 adddollar \$1;
#X obj 175 305 until;
#X obj 105 431 list-unique;
#X obj 175 261 random;
#X obj 175 328 random;
#X obj 105 451 list-drip;
#X obj 243 338 inlet;
#X obj 223 453 r \$0-seqNoteRandBelow-\$1;
#X obj 139 537 -;
#X obj 105 554 f;
#X obj 218 520 r \$0-seqNoteRandAbove-\$1;
#X obj 139 559 -;
#X obj 218 542 + 1;
#X obj 139 581 / 12;
#X obj 139 603 i;
#X obj 122 711 * -12;
#X obj 156 514 * 12;
#X obj 105 470 t b b f f;
#X obj 139 625 + 1;
#X obj 175 283 + 1;
#N canvas 209 252 1286 641 WholeScaleNotes 0;
#X obj 72 41 inlet;
#X obj 302 191 outlet;
#X obj 72 98 random 100;
#X obj 72 120 moses;
#X obj 302 137 t b;
#X obj 99 143 t b;
#X obj 99 167 outlet midiInNotesRandom;
#N canvas 255 139 1204 736 randScaleNotes 0;
#X obj 364 -14 inlet;
#X obj 364 108 random 100;
#X obj 629 302 r storePreset;
#X obj 629 400 list trim;
#X obj 629 422 s storeToPreset;
#X obj 572 207 +;
#X obj 546 185 +;
#X obj 523 162 +;
#X obj 498 139 +;
#X obj 474 116 f;
#X obj 364 133 moses;
#X obj 391 156 moses;
#X obj 418 179 moses;
#X obj 445 202 moses;
#X obj 472 224 moses;
#X obj 364 155 t b;
#X obj 391 178 t b;
#X obj 418 201 t b;
#X obj 445 224 t b;
#X obj 472 246 t b;
#X obj 474 96 * 100;
#X obj 513 119 * 100;
#X obj 538 142 * 100;
#X obj 561 165 * 100;
#X obj 587 187 * 100;
#X obj 808 -4 r dumpInst-\$1;
#N canvas 107 49 1308 799 100% 0;
#X obj 82 -40 inlet;
#X obj 98 646 outlet;
#X obj 82 24 * 100;
#X obj 82 46 i;
#X obj 192 19 * 100;
#X obj 192 41 i;
#X obj 542 19 * 100;
#X obj 542 41 i;
#X obj 652 19 * 100;
#X obj 652 41 i;
#X obj 762 19 * 100;
#X obj 762 41 i;
#X obj 1045 276 f;
#X obj 1084 277 + 1;
#X obj 1084 299 t f f f;
#X msg 1123 259 0;
#X obj 1084 345 +;
#X obj 1103 323 >=;
#X msg 121 115 1;
#X msg 231 110 2;
#X obj 581 87 change 75;
#X obj 691 87 change 25;
#X obj 801 87 change 0;
#X obj 231 87 change 0;
#X obj 121 92 change 0;
#X obj 82 215 sel 1;
#X obj 132 215 sel 1;
#X msg 132 237 1;
#X obj 132 259 t b f;
#X msg 82 237 -1;
#X obj 82 259 t b f;
#X obj 84 468 f;
#X obj 194 468 f;
#X obj 544 468 f;
#X obj 654 468 f;
#X obj 764 468 f;
#X obj 764 388 f 0;
#X obj 648 388 f 25;
#X obj 194 388 f 0;
#X obj 84 388 f 0;
#X obj 550 198 sel 100;
#X obj 132 193 < 100;
#X obj 82 193 > 100;
#X obj 84 410 > 0;
#X obj 84 430 sel 1 0;
#X obj 194 410 > 0;
#X obj 194 430 sel 1 0;
#X obj 538 410 > 0;
#X obj 538 430 sel 1 0;
#X obj 648 410 > 0;
#X obj 648 430 sel 1 0;
#X obj 764 410 > 0;
#X obj 764 430 sel 1 0;
#X obj 84 490 +;
#X obj 194 490 +;
#X obj 544 490 +;
#X obj 654 490 +;
#X obj 764 490 +;
#X obj 538 388 f 75;
#X obj 82 70 t f f f f;
#X obj 192 65 t f f f f;
#X obj 542 65 t f f f f;
#X obj 652 65 t f f f f;
#X obj 762 65 t f f f f;
#X obj 798 307 f;
#X obj 688 305 f;
#X obj 578 306 f;
#X obj 228 306 f;
#X obj 118 306 f;
#X obj 764 510 t b b f;
#X obj 654 515 t b b f;
#X obj 194 512 t b b f;
#X obj 84 512 t f b;
#X obj 550 176 pipe 1;
#X obj 1045 447 del 1;
#X obj 118 612 / 100;
#X obj 798 612 / 100;
#X obj 682 612 / 100;
#X obj 572 612 / 100;
#X obj 228 612 / 100;
#X msg 862 70 set \$1;
#X msg 722 70 set \$1;
#X msg 602 70 set \$1;
#X msg 252 70 set \$1;
#X msg 142 70 set \$1;
#X obj 804 529 moses 0;
#X msg 804 551 0;
#X obj 693 532 moses 0;
#X msg 693 554 0;
#X obj 583 531 moses 0;
#X msg 583 553 0;
#X obj 234 533 moses 0;
#X msg 234 555 0;
#X obj 84 533 moses 0;
#X msg 84 555 0;
#X obj 994 452 inlet;
#X obj 604 665 > 99;
#X obj 570 692 spigot;
#X obj 364 740 t b;
#X msg 364 762 1;
#X obj 224 670 > 99;
#X obj 224 701 spigot;
#X obj 114 670 > 99;
#X obj 114 701 spigot;
#X obj 702 658 > 99;
#X obj 673 696 spigot;
#X obj 807 675 > 99;
#X obj 785 707 spigot;
#X obj 544 512 t b f b;
#X msg 673 723 1;
#X obj 673 745 pipe 1;
#X obj 121 137 s \$0-keep;
#X obj 231 132 s \$0-keep;
#X obj 581 132 s \$0-keep;
#X obj 691 132 s \$0-keep;
#X obj 801 132 s \$0-keep;
#X obj 1139 306 r \$0-keep;
#X obj 175 276 s \$0-add;
#X obj 128 451 r \$0-add;
#X obj 398 -23 unpack f f f f f f f;
#X obj -34 629 pack f f f f f f f;
#X msg 911 607 list /rootLabel I:\$1%;
#X msg 1081 607 list /9thLabel II:\$1%;
#X msg 1241 607 list /3rdLabel III:\$1%;
#X msg 949 631 list /4thLabel IV:\$1%;
#X msg 1129 631 list /5thLabel V:\$1%;
#X msg 1269 631 list /6thLabel VI:\$1%;
#X msg 1249 661 list /7thLabel VII:\$1%;
#X obj 930 371 sel 1 2 3 4 5 6 7;
#X msg 581 110 5;
#X msg 691 110 6;
#X msg 801 110 7;
#X obj 82 171 expr $f1 + $f2 + $f3 + $f4 + $f5 + $f6 + $f7;
#X obj 550 154 expr $f1 + $f2 + $f3 + $f4 + $f5 + $f6 + $f7;
#X obj 302 19 * 100;
#X obj 302 41 i;
#X obj 341 87 change 0;
#X obj 304 468 f;
#X obj 304 388 f 0;
#X obj 304 410 > 0;
#X obj 304 430 sel 1 0;
#X obj 304 490 +;
#X obj 302 65 t f f f f;
#X obj 338 306 f;
#X obj 304 512 t b b f;
#X obj 338 612 / 100;
#X msg 362 70 set \$1;
#X obj 344 533 moses 0;
#X msg 344 555 0;
#X obj 334 670 > 99;
#X obj 334 701 spigot;
#X obj 341 132 s \$0-keep;
#X obj 415 19 * 100;
#X obj 415 41 i;
#X obj 454 87 change 0;
#X obj 417 468 f;
#X obj 417 388 f 0;
#X obj 417 410 > 0;
#X obj 417 430 sel 1 0;
#X obj 417 490 +;
#X obj 415 65 t f f f f;
#X obj 451 306 f;
#X obj 417 512 t b b f;
#X obj 451 612 / 100;
#X msg 475 70 set \$1;
#X obj 457 533 moses 0;
#X msg 457 555 0;
#X obj 447 670 > 99;
#X obj 447 701 spigot;
#X obj 454 132 s \$0-keep;
#X obj 1048 491 == 5;
#X msg 341 110 3;
#X msg 454 110 4;
#X obj 550 573 t b b b b b b b;
#X obj 798 589 f 15;
#X obj 682 590 f 10;
#X obj 572 590 f 15;
#X obj 451 590 f 5;
#X obj 338 590 f 15;
#X obj 228 590 f 15;
#X obj 118 590 f 20;
#X obj 1123 239 sel 6;
#X obj 994 474 t f f;
#X obj 994 508 spigot;
#X obj 994 573 t b b b b b b b;
#X obj 994 552 spigot;
#X obj 1122 513 r editInst;
#X obj 1122 535 == \$1;
#X obj 1083 679 spigot;
#X obj 1083 699 spigot;
#X obj 1179 701 r setPage;
#X obj 1179 723 == 5;
#X obj 1083 721 s toGUI;
#X obj 994 530 spigot;
#X obj 1087 513 > 0;
#X obj 1087 471 r /instSeqLength-\$1;
#X obj 1087 493 route float;
#X connect 0 0 119 0;
#X connect 2 0 3 0;
#X connect 3 0 59 0;
#X connect 4 0 5 0;
#X connect 5 0 60 0;
#X connect 6 0 7 0;
#X connect 7 0 61 0;
#X connect 8 0 9 0;
#X connect 9 0 62 0;
#X connect 10 0 11 0;
#X connect 11 0 63 0;
#X connect 12 0 13 0;
#X connect 13 0 14 0;
#X connect 14 0 16 0;
#X connect 14 1 17 0;
#X connect 14 2 181 0;
#X connect 15 0 12 1;
#X connect 16 0 128 0;
#X connect 17 0 16 1;
#X connect 18 0 111 0;
#X connect 19 0 112 0;
#X connect 20 0 129 0;
#X connect 21 0 130 0;
#X connect 22 0 131 0;
#X connect 23 0 19 0;
#X connect 24 0 18 0;
#X connect 25 0 29 0;
#X connect 26 0 27 0;
#X connect 27 0 28 0;
#X connect 28 0 12 0;
#X connect 28 1 117 0;
#X connect 29 0 30 0;
#X connect 30 0 12 0;
#X connect 30 1 117 0;
#X connect 31 0 53 0;
#X connect 32 0 54 0;
#X connect 33 0 55 0;
#X connect 34 0 56 0;
#X connect 35 0 57 0;
#X connect 36 0 51 0;
#X connect 37 0 49 0;
#X connect 38 0 45 0;
#X connect 39 0 43 0;
#X connect 40 0 173 0;
#X connect 41 0 26 0;
#X connect 42 0 25 0;
#X connect 43 0 44 0;
#X connect 44 0 31 0;
#X connect 44 1 74 0;
#X connect 45 0 46 0;
#X connect 46 0 32 0;
#X connect 46 1 74 0;
#X connect 47 0 48 0;
#X connect 48 0 33 0;
#X connect 48 1 74 0;
#X connect 49 0 50 0;
#X connect 50 0 34 0;
#X connect 50 1 74 0;
#X connect 51 0 52 0;
#X connect 52 0 35 0;
#X connect 52 1 74 0;
#X connect 53 0 72 0;
#X connect 54 0 71 0;
#X connect 55 0 108 0;
#X connect 56 0 70 0;
#X connect 57 0 69 0;
#X connect 58 0 47 0;
#X connect 59 0 132 0;
#X connect 59 1 39 1;
#X connect 59 1 53 1;
#X connect 59 2 24 0;
#X connect 59 3 68 1;
#X connect 59 3 103 0;
#X connect 59 3 180 1;
#X connect 60 0 132 1;
#X connect 60 1 38 1;
#X connect 60 1 54 1;
#X connect 60 2 23 0;
#X connect 60 3 67 1;
#X connect 60 3 101 0;
#X connect 60 3 179 1;
#X connect 61 0 132 4;
#X connect 61 1 55 1;
#X connect 61 1 58 1;
#X connect 61 2 20 0;
#X connect 61 3 66 1;
#X connect 61 3 97 0;
#X connect 61 3 176 1;
#X connect 62 0 132 5;
#X connect 62 1 37 1;
#X connect 62 1 56 1;
#X connect 62 2 21 0;
#X connect 62 3 65 1;
#X connect 62 3 105 0;
#X connect 62 3 175 1;
#X connect 63 0 132 6;
#X connect 63 1 36 1;
#X connect 63 1 57 1;
#X connect 63 2 22 0;
#X connect 63 3 64 1;
#X connect 63 3 107 0;
#X connect 63 3 174 1;
#X connect 64 0 57 1;
#X connect 64 0 133 6;
#X connect 64 0 174 1;
#X connect 65 0 56 1;
#X connect 65 0 133 5;
#X connect 65 0 175 1;
#X connect 66 0 55 1;
#X connect 66 0 133 4;
#X connect 66 0 176 1;
#X connect 67 0 54 1;
#X connect 67 0 133 1;
#X connect 67 0 179 1;
#X connect 68 0 53 1;
#X connect 68 0 133 0;
#X connect 68 0 180 1;
#X connect 69 0 68 0;
#X connect 69 1 65 0;
#X connect 69 1 66 0;
#X connect 69 1 67 0;
#X connect 69 1 143 0;
#X connect 69 1 161 0;
#X connect 69 2 85 0;
#X connect 70 0 68 0;
#X connect 70 1 64 0;
#X connect 70 1 66 0;
#X connect 70 1 67 0;
#X connect 70 1 143 0;
#X connect 70 1 161 0;
#X connect 70 2 87 0;
#X connect 71 0 68 0;
#X connect 71 1 64 0;
#X connect 71 1 65 0;
#X connect 71 1 66 0;
#X connect 71 1 143 0;
#X connect 71 1 161 0;
#X connect 71 2 91 0;
#X connect 72 0 93 0;
#X connect 72 1 64 0;
#X connect 72 1 65 0;
#X connect 72 1 66 0;
#X connect 72 1 67 0;
#X connect 72 1 143 0;
#X connect 72 1 161 0;
#X connect 73 0 41 0;
#X connect 73 0 42 0;
#X connect 74 0 12 0;
#X connect 75 0 120 0;
#X connect 76 0 120 6;
#X connect 77 0 120 5;
#X connect 78 0 120 4;
#X connect 79 0 120 1;
#X connect 80 0 22 0;
#X connect 81 0 21 0;
#X connect 82 0 20 0;
#X connect 83 0 23 0;
#X connect 84 0 24 0;
#X connect 85 0 86 0;
#X connect 85 1 64 0;
#X connect 86 0 64 0;
#X connect 87 0 88 0;
#X connect 87 1 65 0;
#X connect 88 0 65 0;
#X connect 89 0 90 0;
#X connect 89 1 66 0;
#X connect 90 0 66 0;
#X connect 91 0 92 0;
#X connect 91 1 67 0;
#X connect 92 0 67 0;
#X connect 93 0 94 0;
#X connect 93 1 68 0;
#X connect 94 0 68 0;
#X connect 95 0 182 0;
#X connect 96 0 97 1;
#X connect 97 0 98 0;
#X connect 98 0 99 0;
#X connect 99 0 37 0;
#X connect 100 0 101 1;
#X connect 101 0 98 0;
#X connect 102 0 103 1;
#X connect 103 0 98 0;
#X connect 104 0 105 1;
#X connect 105 0 109 0;
#X connect 106 0 107 1;
#X connect 107 0 109 0;
#X connect 108 0 68 0;
#X connect 108 1 89 0;
#X connect 108 2 64 0;
#X connect 108 2 65 0;
#X connect 108 2 67 0;
#X connect 108 2 143 0;
#X connect 108 2 161 0;
#X connect 109 0 110 0;
#X connect 110 0 58 0;
#X connect 116 0 17 1;
#X connect 118 0 31 1;
#X connect 118 0 32 1;
#X connect 118 0 33 1;
#X connect 118 0 34 1;
#X connect 118 0 35 1;
#X connect 118 0 137 1;
#X connect 118 0 155 1;
#X connect 119 0 2 0;
#X connect 119 1 4 0;
#X connect 119 2 134 0;
#X connect 119 3 152 0;
#X connect 119 4 6 0;
#X connect 119 5 8 0;
#X connect 119 6 10 0;
#X connect 120 0 1 0;
#X connect 121 0 188 0;
#X connect 122 0 188 0;
#X connect 123 0 188 0;
#X connect 124 0 188 0;
#X connect 125 0 188 0;
#X connect 126 0 188 0;
#X connect 127 0 188 0;
#X connect 128 0 39 0;
#X connect 128 1 38 0;
#X connect 128 2 138 0;
#X connect 128 3 156 0;
#X connect 128 4 58 0;
#X connect 128 5 37 0;
#X connect 128 6 36 0;
#X connect 129 0 113 0;
#X connect 130 0 114 0;
#X connect 131 0 115 0;
#X connect 132 0 41 0;
#X connect 132 0 42 0;
#X connect 132 0 40 0;
#X connect 133 0 40 0;
#X connect 133 0 73 0;
#X connect 134 0 135 0;
#X connect 135 0 142 0;
#X connect 136 0 171 0;
#X connect 137 0 141 0;
#X connect 138 0 139 0;
#X connect 139 0 140 0;
#X connect 140 0 137 0;
#X connect 140 1 74 0;
#X connect 141 0 144 0;
#X connect 142 0 132 2;
#X connect 142 1 138 1;
#X connect 142 1 141 1;
#X connect 142 2 136 0;
#X connect 142 3 143 1;
#X connect 142 3 150 0;
#X connect 142 3 178 1;
#X connect 143 0 141 1;
#X connect 143 0 133 2;
#X connect 143 0 178 1;
#X connect 144 0 68 0;
#X connect 144 1 67 0;
#X connect 144 1 66 0;
#X connect 144 1 65 0;
#X connect 144 1 64 0;
#X connect 144 2 147 0;
#X connect 145 0 120 2;
#X connect 146 0 136 0;
#X connect 147 0 148 0;
#X connect 147 1 143 0;
#X connect 148 0 143 0;
#X connect 149 0 150 1;
#X connect 150 0 98 0;
#X connect 152 0 153 0;
#X connect 153 0 160 0;
#X connect 154 0 172 0;
#X connect 155 0 159 0;
#X connect 156 0 157 0;
#X connect 157 0 158 0;
#X connect 158 0 155 0;
#X connect 158 1 74 0;
#X connect 159 0 162 0;
#X connect 160 0 132 3;
#X connect 160 1 156 1;
#X connect 160 1 159 1;
#X connect 160 2 154 0;
#X connect 160 3 161 1;
#X connect 160 3 168 0;
#X connect 160 3 177 1;
#X connect 161 0 159 1;
#X connect 161 0 133 3;
#X connect 161 0 177 1;
#X connect 162 0 68 0;
#X connect 162 1 64 0;
#X connect 162 1 65 0;
#X connect 162 1 66 0;
#X connect 162 1 143 0;
#X connect 162 1 67 0;
#X connect 162 2 165 0;
#X connect 163 0 120 3;
#X connect 164 0 154 0;
#X connect 165 0 166 0;
#X connect 165 1 161 0;
#X connect 166 0 161 0;
#X connect 167 0 168 1;
#X connect 168 0 98 0;
#X connect 170 0 183 1;
#X connect 171 0 151 0;
#X connect 172 0 169 0;
#X connect 173 0 180 0;
#X connect 173 1 179 0;
#X connect 173 2 178 0;
#X connect 173 3 177 0;
#X connect 173 4 176 0;
#X connect 173 5 175 0;
#X connect 173 6 174 0;
#X connect 174 0 76 0;
#X connect 174 0 80 0;
#X connect 174 0 106 0;
#X connect 174 0 127 0;
#X connect 175 0 77 0;
#X connect 175 0 81 0;
#X connect 175 0 104 0;
#X connect 175 0 126 0;
#X connect 176 0 78 0;
#X connect 176 0 82 0;
#X connect 176 0 96 0;
#X connect 176 0 125 0;
#X connect 177 0 163 0;
#X connect 177 0 164 0;
#X connect 177 0 167 0;
#X connect 177 0 124 0;
#X connect 178 0 145 0;
#X connect 178 0 146 0;
#X connect 178 0 149 0;
#X connect 178 0 123 0;
#X connect 179 0 79 0;
#X connect 179 0 83 0;
#X connect 179 0 122 0;
#X connect 179 0 100 0;
#X connect 180 0 75 0;
#X connect 180 0 84 0;
#X connect 180 0 121 0;
#X connect 180 0 102 0;
#X connect 181 0 15 0;
#X connect 181 1 12 1;
#X connect 182 0 183 0;
#X connect 182 1 170 0;
#X connect 183 0 193 0;
#X connect 184 0 180 0;
#X connect 184 1 179 0;
#X connect 184 2 178 0;
#X connect 184 3 177 0;
#X connect 184 4 176 0;
#X connect 184 5 175 0;
#X connect 184 6 174 0;
#X connect 185 0 184 0;
#X connect 186 0 187 0;
#X connect 187 0 185 1;
#X connect 187 0 188 1;
#X connect 188 0 189 0;
#X connect 189 0 192 0;
#X connect 190 0 191 0;
#X connect 191 0 189 1;
#X connect 193 0 185 0;
#X connect 194 0 193 1;
#X connect 195 0 196 0;
#X connect 196 0 194 0;
#X restore 650 13 pd 100%;
#X obj 829 162 t a b;
#X obj 829 243 s toGUI;
#X obj 629 355 list;
#X obj 610 -9 r /seqWholeScaleNotesProb-\$1;
#X obj 829 222 list prepend /seqWholeScaleNotesProb set;
#X obj 629 378 list prepend add /seqWholeScaleNotesProb-\$1;
#X obj 626 251 +;
#X obj 600 229 +;
#X obj 499 246 moses;
#X obj 526 268 moses;
#X obj 499 268 t b;
#X obj 526 290 t b;
#X obj 615 209 * 100;
#X obj 641 231 * 100;
#X obj 610 37 unpack f f f f f f f;
#X obj 610 79 f 0.2;
#X obj 633 102 f 0.15;
#X obj 656 125 f 0.15;
#X obj 679 148 f 0.05;
#X obj 703 170 f 0.15;
#X obj 733 192 f 0.1;
#X obj 757 214 f 0.15;
#X obj 829 200 list 0.2 0.15 0.15 0.05 0.15 0.1 0.15;
#X obj 227 95 r scale;
#X obj 227 123 unpack f f f f f f f;
#X obj 212 187 f;
#X obj 231 207 f;
#X obj 251 227 f;
#X obj 270 247 f;
#X obj 290 267 f;
#X obj 309 287 f;
#X obj 329 307 f;
#X obj 403 529 outlet;
#X msg 403 353 set;
#X obj 383 76 until;
#X obj 383 54 + 1;
#X obj 428 -13 r /seqNoteRandPoly-\$1;
#X obj 364 8 t b b b;
#X msg 403 375 12;
#X obj 383 32 random 1;
#X obj 428 9 + 1;
#X msg 338 358 add2 \$1;
#X obj 519 346 / 12;
#X obj 519 368 i;
#X obj 403 452 list-map;
#X obj 504 429 +;
#X obj 519 409 * 12;
#X obj 504 451 t f f;
#X obj 504 472 -;
#X obj 519 389 + 1;
#X obj 566 473 r \$0-NotesAbove;
#X obj 519 324 r \$0-NotesBelow;
#X obj 862 23 r editInst;
#X obj 862 45 == \$1;
#X obj 946 47 r setPage;
#X obj 946 72 == 5;
#X obj 829 69 spigot;
#X obj 829 89 spigot;
#X obj 531 552 * 12;
#X obj 531 502 /;
#X obj 531 524 i;
#X obj 448 412 % 12;
#N canvas 579 148 401 364 dependant 0;
#X obj 43 92 inlet;
#X obj 43 114 spigot 1;
#X obj 43 158 outlet;
#X obj 88 69 r /seqNote-\$1;
#X obj 88 91 == 0;
#X obj 43 136 spigot 1;
#X obj 136 118 r /seqScaleNotes-\$1;
#X obj 136 140 > 0;
#X connect 0 0 1 0;
#X connect 1 0 5 0;
#X connect 3 0 4 0;
#X connect 4 0 1 1;
#X connect 5 0 2 0;
#X connect 6 0 7 0;
#X connect 7 0 5 1;
#X restore 629 328 pd dependant;
#X obj 829 141 spigot;
#X obj 942 154 > 0;
#X obj 942 102 r /instSeqLength-\$1;
#X obj 942 124 route float;
#X connect 0 0 64 0;
#X connect 1 0 10 0;
#X connect 2 0 89 0;
#X connect 3 0 4 0;
#X connect 5 0 14 1;
#X connect 5 0 34 0;
#X connect 6 0 5 0;
#X connect 6 0 13 1;
#X connect 7 0 6 0;
#X connect 7 0 12 1;
#X connect 8 0 7 0;
#X connect 8 0 11 1;
#X connect 9 0 8 0;
#X connect 9 0 10 1;
#X connect 10 0 15 0;
#X connect 10 1 11 0;
#X connect 11 0 16 0;
#X connect 11 1 12 0;
#X connect 12 0 17 0;
#X connect 12 1 13 0;
#X connect 13 0 18 0;
#X connect 13 1 14 0;
#X connect 14 0 19 0;
#X connect 14 1 35 0;
#X connect 15 0 52 0;
#X connect 16 0 53 0;
#X connect 17 0 54 0;
#X connect 18 0 55 0;
#X connect 19 0 56 0;
#X connect 20 0 9 0;
#X connect 21 0 8 1;
#X connect 22 0 7 1;
#X connect 23 0 6 1;
#X connect 24 0 5 1;
#X connect 25 0 26 1;
#X connect 26 0 29 1;
#X connect 26 0 41 0;
#X connect 26 0 83 0;
#X connect 27 0 49 0;
#X connect 27 1 49 1;
#X connect 29 0 32 0;
#X connect 30 0 26 0;
#X connect 31 0 28 0;
#X connect 32 0 3 0;
#X connect 33 0 36 1;
#X connect 34 0 33 0;
#X connect 34 0 35 1;
#X connect 35 0 37 0;
#X connect 35 1 36 0;
#X connect 36 0 38 0;
#X connect 37 0 57 0;
#X connect 38 0 58 0;
#X connect 39 0 34 1;
#X connect 40 0 33 1;
#X connect 41 0 42 0;
#X connect 41 1 43 0;
#X connect 41 2 44 0;
#X connect 41 3 45 0;
#X connect 41 4 46 0;
#X connect 41 5 47 0;
#X connect 41 6 48 0;
#X connect 42 0 20 0;
#X connect 43 0 21 0;
#X connect 44 0 22 0;
#X connect 45 0 23 0;
#X connect 46 0 24 0;
#X connect 47 0 39 0;
#X connect 48 0 40 0;
#X connect 49 0 31 0;
#X connect 50 0 51 0;
#X connect 51 0 52 1;
#X connect 51 1 53 1;
#X connect 51 2 54 1;
#X connect 51 3 55 1;
#X connect 51 4 56 1;
#X connect 51 5 57 1;
#X connect 51 6 58 1;
#X connect 52 0 68 0;
#X connect 53 0 68 0;
#X connect 54 0 68 0;
#X connect 55 0 68 0;
#X connect 56 0 68 0;
#X connect 57 0 68 0;
#X connect 58 0 68 0;
#X connect 60 0 65 0;
#X connect 61 0 1 0;
#X connect 62 0 61 0;
#X connect 63 0 67 0;
#X connect 64 0 65 0;
#X connect 64 1 66 0;
#X connect 64 2 60 0;
#X connect 65 0 71 0;
#X connect 66 0 62 0;
#X connect 67 0 66 1;
#X connect 68 0 65 0;
#X connect 69 0 70 0;
#X connect 70 0 76 0;
#X connect 71 0 59 0;
#X connect 71 1 88 0;
#X connect 72 0 74 0;
#X connect 73 0 72 1;
#X connect 74 0 75 0;
#X connect 74 1 86 0;
#X connect 75 0 71 1;
#X connect 76 0 73 0;
#X connect 77 0 86 1;
#X connect 78 0 69 0;
#X connect 79 0 80 0;
#X connect 80 0 83 1;
#X connect 81 0 82 0;
#X connect 82 0 84 1;
#X connect 83 0 84 0;
#X connect 84 0 90 0;
#X connect 85 0 75 1;
#X connect 86 0 87 0;
#X connect 87 0 85 0;
#X connect 88 0 72 0;
#X connect 89 0 29 0;
#X connect 90 0 27 0;
#X connect 91 0 90 1;
#X connect 92 0 93 0;
#X connect 93 0 91 0;
#X restore 302 168 pd randScaleNotes;
#N canvas 382 46 725 544 GUI 0;
#X obj 85 1 inlet;
#X obj 85 84 spigot;
#X obj 207 -30 r setPage;
#X obj 207 -8 == 5;
#X obj 85 298 s toGUI;
#X obj 207 14 change;
#X obj 207 36 t b f;
#X obj 85 53 f 0;
#X obj 341 53 sel 1;
#X obj 341 75 f 1;
#X obj 417 58 r editInst;
#X obj 341 97 == \$1;
#X obj 85 23 route bang set;
#X obj 85 161 spigot;
#X obj 163 136 r setPage;
#X obj 163 158 == 5;
#X msg 85 202 list /rootLabel enable \$1 \, list /9thLabel enable \$1
\, list /3rdLabel enable \$1 \, list /4thLabel enable \$1 \, list /5thLabel
enable \$1 \, list /6thLabel enable \$1 \, list /7thLabel enable \$1
\, list /seqWholeScaleNotesProb enable \$1 \, list /seqScaleNotesAddLabel
enable \$1;
#X connect 0 0 12 0;
#X connect 1 0 13 0;
#X connect 2 0 3 0;
#X connect 3 0 5 0;
#X connect 5 0 6 0;
#X connect 6 0 7 0;
#X connect 6 1 8 0;
#X connect 7 0 1 0;
#X connect 8 0 9 0;
#X connect 8 1 1 1;
#X connect 9 0 11 0;
#X connect 10 0 9 1;
#X connect 11 0 1 1;
#X connect 12 0 7 0;
#X connect 12 1 7 1;
#X connect 12 1 13 0;
#X connect 12 2 7 0;
#X connect 13 0 16 0;
#X connect 14 0 15 0;
#X connect 15 0 13 1;
#X connect 16 0 4 0;
#X restore 479 135 pd GUI;
#X obj 599 96 sel 1;
#X msg 626 118 set \$1;
#X obj 479 86 != 0;
#X obj 479 108 change;
#X obj 479 180 t b b;
#X msg 544 86 set -1;
#X obj 593 202 r /seqNote-\$1;
#X obj 593 224 f;
#X obj 775 150 == 5;
#X obj 593 248 == 0;
#X obj 593 270 change -1;
#X obj 775 83 r setPage;
#X obj 775 127 spigot;
#X obj 861 95 r editInst;
#X obj 861 147 == \$1;
#X obj 775 105 t f b;
#X obj 861 117 f 1;
#X msg 847 253 set -1;
#X obj 847 219 sel 1;
#X obj 847 189 == 1;
#X obj 775 172 t b f;
#X obj 124 56 presFloat /seqScaleNotes \$1 0 scaleNotes 100 0 5 0 /seqNote-\$1
== 0;
#X connect 0 0 2 0;
#X connect 2 0 3 0;
#X connect 3 0 4 0;
#X connect 3 1 5 0;
#X connect 4 0 7 0;
#X connect 5 0 6 0;
#X connect 7 0 1 0;
#X connect 9 0 13 0;
#X connect 9 1 10 0;
#X connect 10 0 8 0;
#X connect 11 0 12 0;
#X connect 12 0 8 0;
#X connect 13 0 11 0;
#X connect 13 1 14 0;
#X connect 14 0 12 0;
#X connect 15 0 16 0;
#X connect 16 0 18 0;
#X connect 17 0 29 0;
#X connect 18 0 19 0;
#X connect 19 0 9 0;
#X connect 20 0 24 0;
#X connect 21 0 17 0;
#X connect 22 0 25 0;
#X connect 23 0 21 1;
#X connect 24 0 21 0;
#X connect 24 1 25 0;
#X connect 25 0 23 0;
#X connect 26 0 19 0;
#X connect 27 0 26 0;
#X connect 28 0 27 0;
#X connect 29 0 16 0;
#X connect 29 1 28 0;
#X connect 30 0 3 1;
#X connect 30 0 11 0;
#X restore 105 165 pd WholeScaleNotes;
#X obj 205 624 inlet highOrLow;
#X obj 122 655 spigot;
#X obj 205 646 route bang;
#X msg 205 668 1;
#X msg 234 668 0;
#X obj 262 668 sel 0;
#X msg 289 694 0;
#X obj 210 206 spigot;
#X obj 196 499 i;
#X obj 156 492 /;
#X obj 223 475 - 1;
#X obj 168 694 spigot;
#X msg 219 695 0;
#X msg 217 715 1;
#X obj 349 70 > 1;
#X obj 349 92 change;
#X obj 376 138 s /seqScaleNotes-\$1;
#X obj 349 114 sel 1;
#X obj 229 269 r midiInNotes-\$1;
#X msg 105 409 \$2;
#X obj 105 366 list;
#X obj 105 291 t b b b;
#X obj 229 289 route fix direct;
#X obj 81 95 s /seqNoteDump-\$1;
#X obj 46 36 presFloat /seqNote \$1 60 sequencerNoteOut 128 0 5 0 /instSeqLength-\$1
> 0;
#X obj 232 231 presFloat /seqNoteRandPoly \$1 0 NoteOutMaxPolyphony
1 1 5 0 /seqNote-\$1 == 0;
#X obj 649 43 r setPage;
#X obj 601 88 spigot;
#X obj 601 110 spigot;
#X obj 728 71 r editInst;
#X obj 728 93 == \$1;
#X obj 600 66 f;
#X obj 601 152 spigot;
#X obj 704 113 inlet Channel;
#X obj 704 155 == 10;
#X obj 649 88 t b f;
#X obj 704 185 sel 1;
#X obj 704 135 f;
#X obj 601 132 t f b;
#X obj 601 202 s dumpSeqPercName;
#X obj 649 66 == 5;
#X connect 0 0 1 0;
#X connect 0 0 2 0;
#X connect 1 0 5 0;
#X connect 2 0 32 0;
#X connect 3 0 2 1;
#X connect 4 0 1 1;
#X connect 5 0 6 0;
#X connect 7 0 16 1;
#X connect 8 0 12 0;
#X connect 9 0 27 0;
#X connect 10 0 6 0;
#X connect 11 0 52 0;
#X connect 12 0 52 0;
#X connect 13 0 16 0;
#X connect 14 0 17 0;
#X connect 15 0 31 0;
#X connect 16 0 8 0;
#X connect 17 0 29 0;
#X connect 18 0 40 1;
#X connect 19 0 43 0;
#X connect 20 0 21 1;
#X connect 20 0 23 0;
#X connect 21 0 10 0;
#X connect 22 0 24 0;
#X connect 23 0 25 0;
#X connect 24 0 23 1;
#X connect 25 0 26 0;
#X connect 26 0 30 0;
#X connect 26 0 44 0;
#X connect 27 0 10 1;
#X connect 28 0 20 1;
#X connect 29 0 21 0;
#X connect 29 1 34 0;
#X connect 29 2 20 0;
#X connect 29 3 42 0;
#X connect 30 0 9 1;
#X connect 31 0 13 0;
#X connect 32 0 54 0;
#X connect 32 1 40 0;
#X connect 33 0 35 0;
#X connect 34 0 9 0;
#X connect 35 0 36 0;
#X connect 35 0 45 0;
#X connect 35 1 37 0;
#X connect 35 1 38 0;
#X connect 36 0 34 1;
#X connect 37 0 34 1;
#X connect 38 0 46 0;
#X connect 38 1 39 0;
#X connect 38 1 45 0;
#X connect 39 0 27 0;
#X connect 40 0 14 0;
#X connect 41 0 28 0;
#X connect 42 0 41 0;
#X connect 43 0 42 1;
#X connect 44 0 27 0;
#X connect 45 0 44 1;
#X connect 46 0 44 1;
#X connect 47 0 48 0;
#X connect 48 0 50 0;
#X connect 50 1 49 0;
#X connect 51 0 55 0;
#X connect 52 0 14 0;
#X connect 53 0 52 0;
#X connect 54 0 53 0;
#X connect 54 1 15 0;
#X connect 54 2 11 0;
#X connect 55 0 14 0;
#X connect 55 1 6 0;
#X connect 55 2 7 0;
#X connect 55 2 53 1;
#X connect 57 0 3 0;
#X connect 57 0 4 0;
#X connect 57 0 5 1;
#X connect 57 0 56 0;
#X connect 57 0 64 0;
#X connect 57 1 47 0;
#X connect 58 0 15 1;
#X connect 59 0 73 0;
#X connect 60 0 61 0;
#X connect 61 0 71 0;
#X connect 62 0 63 0;
#X connect 63 0 61 1;
#X connect 64 0 60 0;
#X connect 65 0 72 0;
#X connect 66 0 70 1;
#X connect 67 0 65 1;
#X connect 67 0 69 0;
#X connect 68 0 64 0;
#X connect 68 1 60 1;
#X connect 69 1 72 0;
#X connect 70 0 67 0;
#X connect 71 0 65 0;
#X connect 71 1 70 0;
#X connect 73 0 68 0;
#X restore 73 542 pd seqRandNote;
#N canvas 201 163 1057 851 seqFix 0;
#X obj 74 90 inlet;
#X obj 403 -10 r seqFixPosSlider-\$1;
#X obj 832 15 r storePreset;
#X obj 742 93 s storeToPreset;
#X obj 742 72 list trim;
#X obj 600 54 r dumpInst-\$1;
#X obj 600 167 list split 1;
#X obj 600 127 sel 1;
#X obj 600 147 list 0 0 0 0 0;
#X obj 600 32 t b l;
#X obj 634 189 list prepend /seqFixPosSlider set;
#X obj 403 49 list split 1;
#X obj 74 543 outlet;
#X obj 74 112 t f f;
#X obj 634 242 spigot;
#X obj 634 264 s toGUI;
#X obj 742 52 list prepend add seqFixPosSlider-\$1 fromPreset;
#X obj 403 15 route fromPreset;
#X msg 503 183 0;
#X msg 536 183 1;
#X obj 503 204 s fromPreset-\$1;
#X obj 325 32 t a b;
#X obj 600 77 == 6;
#X obj 416 444 list;
#X obj 416 466 list split;
#X obj 501 405 r \$1-FixPosOff;
#X obj 501 427 t b f;
#X obj 528 449 - 1;
#X obj 444 488 list split 1;
#X obj 444 510 list prepend 0;
#X obj 416 536 list append;
#X obj 416 558 list prepend /seqFixPosSlider;
#X obj 416 580 s toGUI;
#X obj 667 220 change;
#X obj 600 102 t f f b;
#X obj 730 259 list length;
#X obj 730 281 change;
#X obj 730 335 until;
#X obj 730 357 f 0;
#X obj 759 357 + 1;
#X obj 730 303 t b f b;
#X msg 780 335 0;
#X msg 759 380 add2 Position-\$1;
#X obj 759 472 list prepend /seqFixPosMenu;
#X obj 759 494 s toGUI;
#X msg 759 402 Position-1 Position-2 Position-3 Position-4 Position-5
Position-6;
#X msg 825 334 set;
#X obj 150 540 spigot;
#X obj 150 562 spigot;
#X obj 240 533 == 6;
#X obj 241 566 r editInst;
#X obj 241 588 == \$1;
#X obj 150 518 r fixGUI-\$1;
#X obj 240 511 r setPage;
#X obj 74 425 list split 1;
#X obj 108 449 outlet;
#X obj 742 32 list 0 0 0 0 0;
#X obj 74 393 list prepend;
#X obj 74 333 route fix;
#X obj 74 359 list split 1;
#X obj 59 484 r fixTrigger-\$1;
#X obj 59 506 f;
#N canvas 515 230 1027 553 setFixer 0;
#X msg 99 33 32;
#X obj 118 93 until;
#X obj 309 72 f \$1;
#X obj 99 55 t b f b;
#X msg 145 138 add2 f;
#X obj 118 204 f;
#X obj 149 205 + 1;
#X msg 137 183 0;
#X msg 600 109 add2 \$1;
#X msg 580 193 \; pd-Fixer-1 obj 10 30 route 1 2 3 4 5 6 7 8 9 10 11
12 13 14 15 16 17 18 19 20 21 22 23 24 25 26 27 28 29 30 31 32;
#X msg 180 187 \; pd-Fixer-1 obj 380 30 unpack f f f f f f f f f f
f f f f f f f f f f f f f f f f f f f f f f;
#X obj 146 307 t f f;
#X obj 199 327 * 20;
#X obj 199 349 + 50;
#X obj 146 277 pipe 1;
#X obj 280 341 + 3;
#X obj 146 378 pack f f \$1 f f;
#X obj 320 342 - 1;
#X obj 167 38 r \$1-maxSeqPos;
#X msg 309 94 \; pd-Fixer-\$1 clear \; pd-Fixer-\$1 obj 10 10 r fixRoute-\$1
\; pd-Fixer-\$1 obj 380 10 r fixUnpack-\$1 \;;
#X msg 602 141 set \, add \, add2 pd-Fixer-\$1 obj 10 30 route;
#X msg 180 165 set \, add \, add2 pd-Fixer-\$1 obj 380 30 unpack;
#X msg 144 405 \; pd-Fixer-\$3 obj 10 \$2 fixPos \$3 \$1 \; pd-Fixer-\$3
connect 3 \$5 \$4 0 \; pd-Fixer-\$3 connect 2 \$5 \$4 1 \;;
#X msg -65 82 \; pd-Fixer-\$1 connect 0 0 3 0 \; pd-Fixer-\$1 connect
1 0 2 0 \;;
#X obj -65 58 f \$1;
#X connect 0 0 3 0;
#X connect 1 0 4 0;
#X connect 1 0 5 0;
#X connect 2 0 19 0;
#X connect 2 0 20 0;
#X connect 2 0 21 0;
#X connect 3 0 10 0;
#X connect 3 0 9 0;
#X connect 3 0 24 0;
#X connect 3 1 1 0;
#X connect 3 2 2 0;
#X connect 3 2 7 0;
#X connect 4 0 10 0;
#X connect 5 0 6 0;
#X connect 6 0 5 1;
#X connect 6 0 8 0;
#X connect 6 0 14 0;
#X connect 7 0 5 1;
#X connect 8 0 9 0;
#X connect 11 0 16 0;
#X connect 11 1 12 0;
#X connect 11 1 15 0;
#X connect 11 1 17 0;
#X connect 12 0 13 0;
#X connect 13 0 16 1;
#X connect 14 0 11 0;
#X connect 15 0 16 3;
#X connect 16 0 22 0;
#X connect 17 0 16 4;
#X connect 18 0 3 0;
#X connect 20 0 9 0;
#X connect 21 0 10 0;
#X connect 24 0 23 0;
#X restore 249 169 pd setFixer;
#X obj 74 140 s fixRoute-\$1;
#X obj 307 90 s fixUnpack-\$1;
#X obj 74 309 r fixPosSend-\$1;
#N canvas 566 44 791 744 Fixer-\$1 0;
#X obj 10 10 r fixRoute-1;
#X obj 380 10 r fixUnpack-1;
#X obj 380 30 unpack f f f f f f f f f f f f f f f f f f f f f f f
f f f f f f f f f;
#X obj 10 30 route 1 2 3 4 5 6 7 8 9 10 11 12 13 14 15 16 17 18 19
20 21 22 23 24 25 26 27 28 29 30 31 32;
#X obj 10 70 fixPos 1 1;
#X obj 10 90 fixPos 1 2;
#X obj 10 110 fixPos 1 3;
#X obj 10 130 fixPos 1 4;
#X obj 10 150 fixPos 1 5;
#X obj 10 170 fixPos 1 6;
#X obj 10 190 fixPos 1 7;
#X obj 10 210 fixPos 1 8;
#X obj 10 230 fixPos 1 9;
#X obj 10 250 fixPos 1 10;
#X obj 10 270 fixPos 1 11;
#X obj 10 290 fixPos 1 12;
#X obj 10 310 fixPos 1 13;
#X obj 10 330 fixPos 1 14;
#X obj 10 350 fixPos 1 15;
#X obj 10 370 fixPos 1 16;
#X obj 10 390 fixPos 1 17;
#X obj 10 410 fixPos 1 18;
#X obj 10 430 fixPos 1 19;
#X obj 10 450 fixPos 1 20;
#X obj 10 470 fixPos 1 21;
#X obj 10 490 fixPos 1 22;
#X obj 10 510 fixPos 1 23;
#X obj 10 530 fixPos 1 24;
#X obj 10 550 fixPos 1 25;
#X obj 10 570 fixPos 1 26;
#X obj 10 590 fixPos 1 27;
#X obj 10 610 fixPos 1 28;
#X obj 10 630 fixPos 1 29;
#X obj 10 650 fixPos 1 30;
#X obj 10 670 fixPos 1 31;
#X obj 10 690 fixPos 1 32;
#X connect 0 0 3 0;
#X connect 1 0 2 0;
#X connect 2 0 4 1;
#X connect 2 1 5 1;
#X connect 2 2 6 1;
#X connect 2 3 7 1;
#X connect 2 4 8 1;
#X connect 2 5 9 1;
#X connect 2 6 10 1;
#X connect 2 7 11 1;
#X connect 2 8 12 1;
#X connect 2 9 13 1;
#X connect 2 10 14 1;
#X connect 2 11 15 1;
#X connect 2 12 16 1;
#X connect 2 13 17 1;
#X connect 2 14 18 1;
#X connect 2 15 19 1;
#X connect 2 16 20 1;
#X connect 2 17 21 1;
#X connect 2 18 22 1;
#X connect 2 19 23 1;
#X connect 2 20 24 1;
#X connect 2 21 25 1;
#X connect 2 22 26 1;
#X connect 2 23 27 1;
#X connect 2 24 28 1;
#X connect 2 25 29 1;
#X connect 2 26 30 1;
#X connect 2 27 31 1;
#X connect 2 28 32 1;
#X connect 2 29 33 1;
#X connect 2 30 34 1;
#X connect 2 31 35 1;
#X connect 3 0 4 0;
#X connect 3 1 5 0;
#X connect 3 2 6 0;
#X connect 3 3 7 0;
#X connect 3 4 8 0;
#X connect 3 5 9 0;
#X connect 3 6 10 0;
#X connect 3 7 11 0;
#X connect 3 8 12 0;
#X connect 3 9 13 0;
#X connect 3 10 14 0;
#X connect 3 11 15 0;
#X connect 3 12 16 0;
#X connect 3 13 17 0;
#X connect 3 14 18 0;
#X connect 3 15 19 0;
#X connect 3 16 20 0;
#X connect 3 17 21 0;
#X connect 3 18 22 0;
#X connect 3 19 23 0;
#X connect 3 20 24 0;
#X connect 3 21 25 0;
#X connect 3 22 26 0;
#X connect 3 23 27 0;
#X connect 3 24 28 0;
#X connect 3 25 29 0;
#X connect 3 26 30 0;
#X connect 3 27 31 0;
#X connect 3 28 32 0;
#X connect 3 29 33 0;
#X connect 3 30 34 0;
#X connect 3 31 35 0;
#X restore 191 211 pd Fixer-\$1;
#X connect 0 0 13 0;
#X connect 1 0 17 0;
#X connect 2 0 56 0;
#X connect 4 0 3 0;
#X connect 5 0 22 0;
#X connect 6 1 10 0;
#X connect 7 0 8 0;
#X connect 8 0 6 0;
#X connect 9 0 8 0;
#X connect 9 1 8 1;
#X connect 10 0 14 0;
#X connect 11 1 23 1;
#X connect 11 1 64 0;
#X connect 13 0 63 0;
#X connect 13 1 57 1;
#X connect 14 0 15 0;
#X connect 14 0 35 0;
#X connect 16 0 4 0;
#X connect 17 0 8 1;
#X connect 17 0 21 0;
#X connect 17 0 56 1;
#X connect 17 1 9 0;
#X connect 17 1 11 0;
#X connect 17 1 19 0;
#X connect 17 1 56 1;
#X connect 18 0 20 0;
#X connect 19 0 20 0;
#X connect 21 0 11 0;
#X connect 21 1 18 0;
#X connect 22 0 34 0;
#X connect 23 0 24 0;
#X connect 24 0 30 0;
#X connect 24 1 28 0;
#X connect 25 0 26 0;
#X connect 26 0 23 0;
#X connect 26 1 27 0;
#X connect 27 0 24 1;
#X connect 28 1 29 0;
#X connect 29 0 30 1;
#X connect 30 0 31 0;
#X connect 31 0 32 0;
#X connect 33 0 14 1;
#X connect 34 0 7 0;
#X connect 34 1 33 0;
#X connect 35 0 36 0;
#X connect 36 0 40 0;
#X connect 37 0 38 0;
#X connect 38 0 39 0;
#X connect 39 0 38 1;
#X connect 39 0 42 0;
#X connect 40 0 45 0;
#X connect 40 1 37 0;
#X connect 40 2 41 0;
#X connect 40 2 46 0;
#X connect 41 0 38 1;
#X connect 42 0 45 0;
#X connect 43 0 44 0;
#X connect 45 0 43 0;
#X connect 46 0 45 0;
#X connect 47 0 48 0;
#X connect 48 0 32 0;
#X connect 49 0 47 1;
#X connect 50 0 51 0;
#X connect 51 0 48 1;
#X connect 52 0 47 0;
#X connect 53 0 49 0;
#X connect 54 0 12 0;
#X connect 54 1 55 0;
#X connect 56 0 16 0;
#X connect 57 0 54 0;
#X connect 58 0 59 0;
#X connect 58 1 57 0;
#X connect 59 0 61 1;
#X connect 59 1 55 0;
#X connect 60 0 61 0;
#X connect 61 0 12 0;
#X connect 65 0 58 0;
#X restore 46 36 pd seqFix;
#N canvas 574 181 899 554 midiInNotes 0;
#X obj 94 125 r midiInNotes;
#X obj 81 237 s midiInNotes-\$1;
#X obj 198 68 / 12;
#X obj 198 90 i;
#X obj 81 174 list-map;
#X obj 183 151 +;
#X obj 198 131 * 12;
#X obj 183 173 t f f;
#X obj 210 243 * 12;
#X obj 183 194 -;
#X obj 42 2 r fixNoteTrigger-\$1;
#X obj 42 77 s fixTrigger-\$1;
#X obj 42 157 list;
#X obj 198 111 + 1;
#X obj 258 88 s \$0-seqNoteRandBelow-\$1;
#X obj 326 265 -;
#X obj 463 310 >;
#X obj 413 327 spigot;
#X obj 413 285 t f f;
#X obj 371 271 t f;
#X obj 472 338 t f;
#X obj 289 248 t f f;
#X obj 305 350 f;
#X obj 326 314 sel 1;
#X obj 275 190 moses 12;
#X obj 413 263 + 12;
#X obj 326 292 < 12;
#X msg 275 212 12;
#X obj 319 373 - 12;
#X obj 322 421 s /seqNoteRandAbove-\$1;
#X obj 413 369 s /seqNoteRandBelow-\$1;
#X obj 319 395 / 127;
#X obj 413 349 / 127;
#X obj 412 194 moses 115;
#X msg 440 221 115;
#X obj 514 198 s \$0-seqNoteRandAbove-\$1;
#X obj 234 25 s \$0-NotesBelow;
#X obj 207 307 s \$0-NotesAbove;
#X obj 363 199 - 1;
#X obj 210 193 /;
#X obj 210 215 i;
#X obj 81 196 list prepend;
#X obj 42 179 t a b;
#X obj 42 54 t b b a b;
#X msg 96 101 fix;
#X obj 81 218 list trim;
#X obj 42 24 route fixNote;
#X obj 261 122 presFloat /seqNoteRandBelow \$1 1 NoteOutRandomBelow
126 1 5 0 /seqNote-\$1 == 0;
#X obj 419 157 presFloat /seqNoteRandAbove \$1 0 NoteOutRandomAbove
126 0 5 0 /seqNote-\$1 == 0;
#X connect 0 0 12 1;
#X connect 0 0 42 0;
#X connect 2 0 3 0;
#X connect 3 0 13 0;
#X connect 4 0 41 0;
#X connect 4 1 5 0;
#X connect 5 0 7 0;
#X connect 6 0 5 1;
#X connect 7 0 9 0;
#X connect 7 1 39 0;
#X connect 8 0 9 1;
#X connect 9 0 4 1;
#X connect 10 0 46 0;
#X connect 12 0 42 0;
#X connect 13 0 6 0;
#X connect 15 0 26 0;
#X connect 16 0 17 1;
#X connect 17 0 20 0;
#X connect 17 0 32 0;
#X connect 18 0 17 0;
#X connect 18 1 16 0;
#X connect 19 0 15 1;
#X connect 20 0 16 1;
#X connect 21 0 15 0;
#X connect 21 1 22 1;
#X connect 22 0 28 0;
#X connect 23 0 22 0;
#X connect 24 0 27 0;
#X connect 24 1 16 1;
#X connect 24 1 21 0;
#X connect 24 1 2 0;
#X connect 24 1 36 0;
#X connect 25 0 18 0;
#X connect 26 0 23 0;
#X connect 27 0 16 1;
#X connect 27 0 21 0;
#X connect 27 0 2 0;
#X connect 27 0 36 0;
#X connect 28 0 19 0;
#X connect 28 0 31 0;
#X connect 31 0 29 0;
#X connect 32 0 30 0;
#X connect 33 0 15 1;
#X connect 33 0 25 0;
#X connect 33 0 37 0;
#X connect 33 0 38 0;
#X connect 33 1 34 0;
#X connect 34 0 15 1;
#X connect 34 0 25 0;
#X connect 34 0 37 0;
#X connect 34 0 39 1;
#X connect 38 0 39 1;
#X connect 39 0 40 0;
#X connect 40 0 8 0;
#X connect 41 0 45 0;
#X connect 42 0 4 0;
#X connect 42 1 41 1;
#X connect 43 0 11 0;
#X connect 43 1 12 0;
#X connect 43 2 4 0;
#X connect 43 3 44 0;
#X connect 44 0 41 1;
#X connect 45 0 1 0;
#X connect 46 0 1 0;
#X connect 46 1 43 0;
#X connect 47 0 14 0;
#X connect 47 0 24 0;
#X connect 48 0 33 0;
#X connect 48 0 35 0;
#X restore 354 118 pd midiInNotes;
#X obj 46 247 spigot;
#X obj 227 63 f;
#X obj 179 103 spigot;
#X obj 227 86 == 1;
#X obj 302 86 == 3;
#X obj 151 142 > 0;
#X obj 151 162 sel 1 0;
#X obj 185 202 + 1;
#X obj 241 202 - 1;
#X obj 123 230 == 0;
#X obj 46 105 t f b;
#X obj 73 129 spigot;
#X obj 73 158 spigot;
#X obj 257 86 == 2;
#X obj 257 108 sel 1;
#X msg 257 129 0;
#X obj 269 156 spigot;
#X obj 269 199 sel 1;
#X obj 269 246 spigot;
#X obj 355 263 outlet;
#X obj 269 177 > 0;
#X obj 73 191 spigot;
#X obj 145 497 pipe 10;
#X obj 145 519 - 10;
#X obj 73 564 t f b b;
#X obj 73 521 t b b;
#X obj 123 208 f;
#X msg 241 246 0;
#X obj 241 224 moses 1;
#X msg 185 246 0;
#X obj 185 224 moses 1;
#X obj 159 201 f;
#X obj 215 202 f;
#X obj 46 15 presTable \$1;
#X obj 154 300 r \$1-providedVel;
#X obj 179 39 inlet NoteIn;
#X msg 264 363 64;
#X obj 264 407 * 1.5625;
#X obj 220 358 t b f;
#X obj 264 319 / 64;
#X obj 264 385 -;
#X obj 264 429 moses 101;
#X obj 178 355 / 128;
#X obj 700 478 f;
#X obj 700 414 ==;
#X obj 700 392 unpack;
#X obj 733 413 != \$1;
#X obj 700 436 sel 1;
#X obj 700 456 spigot;
#X obj 700 370 r dumpPan;
#X obj 700 500 s panDump;
#X obj 378 462 ctlout 10;
#X obj 378 439 + 64;
#X obj 190 677 t b f;
#X obj 465 709 == 3;
#X obj 465 686 r setPage;
#X obj 417 731 spigot;
#X obj 417 753 spigot;
#X obj 544 714 r editInst;
#X obj 544 736 == \$1;
#X obj 416 709 f;
#X obj 417 825 s dumpPgmName;
#X obj 417 795 spigot;
#X obj 190 778 != 10;
#X obj 465 731 t b f;
#X obj 417 775 t f b;
#X obj 190 800 sel 1;
#X obj 300 594 presFloat /Pgm \$1 0 programChangeNumber 126 1 3;
#X obj 264 286 presFloat /velInToProb \$1 0 velocityInToProbability
128 -64 4 0 /instSeqLength-\$1 > 0;
#X obj 378 417 presFloat /Pan \$1 0.5 ChannelPanning 128 -64 3;
#X connect 0 0 9 1;
#X connect 1 0 2 0;
#X connect 2 0 3 0;
#X connect 3 1 8 0;
#X connect 4 0 5 0;
#X connect 5 0 21 0;
#X connect 6 0 7 2;
#X connect 6 0 31 1;
#X connect 6 0 83 1;
#X connect 6 0 92 0;
#X connect 6 0 102 0;
#X connect 6 0 36 3;
#X connect 7 0 16 0;
#X connect 8 0 4 0;
#X connect 8 1 24 0;
#X connect 8 2 13 0;
#X connect 9 0 22 0;
#X connect 9 1 22 1;
#X connect 10 0 11 1;
#X connect 11 0 12 0;
#X connect 12 0 5 1;
#X connect 13 0 12 1;
#X connect 14 0 75 0;
#X connect 14 1 79 1;
#X connect 15 0 9 2;
#X connect 15 0 61 0;
#X connect 17 0 18 0;
#X connect 18 0 19 0;
#X connect 20 0 64 0;
#X connect 20 1 23 0;
#X connect 20 2 40 0;
#X connect 21 0 20 0;
#X connect 22 1 7 0;
#X connect 22 2 7 1;
#X connect 23 0 22 0;
#X connect 24 0 11 0;
#X connect 25 0 26 0;
#X connect 25 1 27 0;
#X connect 26 0 17 0;
#X connect 26 0 29 1;
#X connect 27 0 26 0;
#X connect 28 0 32 0;
#X connect 29 0 30 0;
#X connect 31 0 34 0;
#X connect 32 0 31 0;
#X connect 32 1 33 0;
#X connect 33 0 35 1;
#X connect 34 0 35 0;
#X connect 35 0 29 0;
#X connect 36 0 63 0;
#X connect 37 0 49 0;
#X connect 37 1 36 1;
#X connect 39 0 1 0;
#X connect 40 0 42 0;
#X connect 40 0 43 0;
#X connect 40 0 52 0;
#X connect 41 0 44 0;
#X connect 42 0 41 1;
#X connect 42 0 50 1;
#X connect 43 0 53 0;
#X connect 43 0 55 1;
#X connect 43 0 57 1;
#X connect 43 0 60 1;
#X connect 44 0 45 0;
#X connect 45 0 70 0;
#X connect 45 1 71 0;
#X connect 46 0 69 0;
#X connect 47 0 67 0;
#X connect 48 0 39 1;
#X connect 48 0 36 2;
#X connect 49 0 39 0;
#X connect 49 1 50 0;
#X connect 49 1 51 0;
#X connect 49 1 60 0;
#X connect 50 0 65 0;
#X connect 51 0 65 0;
#X connect 52 0 51 1;
#X connect 52 0 53 0;
#X connect 53 0 54 0;
#X connect 54 0 65 1;
#X connect 55 0 59 0;
#X connect 56 0 23 0;
#X connect 57 0 58 0;
#X connect 59 0 56 0;
#X connect 60 0 65 0;
#X connect 61 0 62 0;
#X connect 62 0 20 1;
#X connect 63 0 9 0;
#X connect 63 1 0 0;
#X connect 63 2 15 0;
#X connect 64 0 36 0;
#X connect 64 1 57 0;
#X connect 65 0 48 0;
#X connect 66 0 70 1;
#X connect 66 0 71 1;
#X connect 66 0 65 1;
#X connect 67 0 66 0;
#X connect 67 1 70 1;
#X connect 67 1 71 1;
#X connect 67 1 65 1;
#X connect 68 0 70 1;
#X connect 68 0 71 1;
#X connect 68 0 65 1;
#X connect 69 0 68 0;
#X connect 69 1 70 1;
#X connect 69 1 71 1;
#X connect 69 1 65 1;
#X connect 70 0 46 0;
#X connect 71 0 47 0;
#X connect 72 0 37 0;
#X connect 73 0 81 0;
#X connect 74 0 55 0;
#X connect 74 0 41 0;
#X connect 75 0 79 0;
#X connect 76 0 80 0;
#X connect 77 0 81 0;
#X connect 77 1 10 1;
#X connect 78 0 77 0;
#X connect 79 0 76 0;
#X connect 80 0 13 1;
#X connect 81 0 10 0;
#X connect 82 0 89 0;
#X connect 83 0 86 0;
#X connect 84 0 83 0;
#X connect 84 1 85 0;
#X connect 85 0 87 1;
#X connect 86 0 87 0;
#X connect 87 0 82 0;
#X connect 88 0 84 0;
#X connect 91 0 90 0;
#X connect 92 0 17 0;
#X connect 92 0 91 0;
#X connect 92 1 18 1;
#X connect 92 1 90 2;
#X connect 93 0 103 0;
#X connect 94 0 93 0;
#X connect 95 0 96 0;
#X connect 96 0 104 0;
#X connect 97 0 98 0;
#X connect 98 0 96 1;
#X connect 99 0 95 0;
#X connect 101 0 100 0;
#X connect 102 0 101 1;
#X connect 102 0 105 0;
#X connect 103 0 99 0;
#X connect 103 1 95 1;
#X connect 104 0 101 0;
#X connect 104 1 102 0;
#X connect 105 1 100 0;
#X connect 106 0 25 0;
#X connect 106 0 99 0;
#X connect 107 0 14 0;
#X connect 107 0 78 0;
#X connect 108 0 82 1;
#X connect 108 0 91 0;
#X restore 60 72 pd midiSequencer;
#X connect 0 0 1 0;
#X connect 0 1 1 1;
#X connect 1 0 0 0;
