#N canvas 598 23 843 851 10;
#X obj 192 126 spigot;
#X msg 225 87 1;
#X obj 269 87 del 2000;
#X msg 269 109 0;
#X obj -31 92 ctlin;
#X obj 45 109 pack f f f;
#X obj 192 168 unpack f f f;
#X obj 46 266 spigot;
#X obj 46 289 == -1;
#X obj 79 244 == -1;
#X msg 287 210 set \$1;
#X msg 190 254 set \$1;
#X obj 85 447 outlet;
#X obj 192 209 t f f;
#X obj 219 330 t f b;
#X obj 219 652 t a b;
#X msg 246 696 list /midiCtlAssignLabel;
#X obj 246 673 del 3000;
#X obj 244 193 t b f;
#X obj 192 233 t b f;
#X obj 398 286 r getPresets;
#X obj 329 443 s Presets;
#X obj 398 308 spigot;
#X msg 483 291 1;
#X obj 192 148 t b a b;
#X obj 76 165 s restoreSong;
#X obj 471 405 list trim symbol;
#X obj 398 328 t b b b b;
#X obj 436 399 f;
#X obj 450 426 list prepend;
#X obj 350 379 list trim symbol;
#X obj 315 373 f;
#X obj 329 400 list prepend;
#X obj 523 143 r cleanPresets;
#X msg 523 291 0;
#X obj 328 60 inlet dripLoopLength;
#X obj 261 517 + 1;
#X obj 219 630 pack f s 1;
#X obj 46 534 pack f s f 1;
#X obj 65 472 symbol \$3;
#X obj 247 607 symbol \$3;
#X obj 427 176 r midiAss\$3-\$1Chn;
#X obj 471 239 r midiAss\$3-\$1Ctl;
#X obj 471 383 symbol midiAss\$3-\$1Chn;
#X obj 350 357 symbol midiAss\$3-\$1Ctl;
#X obj 205 14 inlet dripSetValue&assignable;
#X obj 46 440 i;
#X obj 46 418 t f b f b b;
#X msg 300 651 stop;
#X msg 46 560 list /midiCtlAssignLabel set \$2: \$1 from midi-Controller-Number
\$3 on Channel \$4;
#X msg 355 104 list /midiAssignableLabel \$1 midi-assignable;
#X obj 355 83 symbol \$3;
#X msg 306 137 list /midiAssignableLabel;
#X obj 225 66 t b b;
#X msg 279 64 stop;
#N canvas 339 348 450 300 behavior_2 0;
#X obj 178 24 inlet;
#X obj 175 221 outlet;
#X obj 148 62 t b;
#X obj 50 86 inlet;
#X obj 148 85 f \$2;
#X obj 148 106 == 2;
#X obj 148 174 == 0;
#X obj 148 196 t f f;
#X obj 80 148 spigot;
#X obj 50 108 route reset;
#X msg 50 130 0;
#X connect 0 0 2 0;
#X connect 2 0 4 0;
#X connect 3 0 9 0;
#X connect 4 0 5 0;
#X connect 5 0 8 1;
#X connect 6 0 7 0;
#X connect 7 0 6 1;
#X connect 7 1 1 0;
#X connect 8 0 6 0;
#X connect 9 0 10 0;
#X connect 9 1 8 0;
#X connect 10 0 8 1;
#X restore 117 327 pd behavior_2;
#X obj 46 330 t b b b;
#X obj 46 309 sel 1;
#X obj 219 761 s toGUI;
#X obj 46 511 spigot;
#X msg 123 504 1;
#X msg 152 504 0;
#X obj -6 659 s toSystem;
#X msg -6 635 list /setPage \$1;
#X msg 558 176 -1;
#X msg 558 198 reset;
#X obj -6 528 t b;
#X msg 125 227 17;
#X msg 125 271 16;
#X obj 21 393 spigot;
#X obj -6 593 f \$6;
#N canvas 339 348 450 300 behavior_0 0;
#X obj 188 37 inlet;
#X obj 146 248 outlet;
#X obj 146 176 * \$4;
#X obj 146 198 + \$5;
#X obj 148 62 t b;
#X obj 74 93 inlet;
#X obj 148 85 f \$2;
#X obj 114 155 spigot;
#X obj 74 115 route reset;
#X msg 74 137 0;
#X obj 148 106 == 0;
#X connect 0 0 4 0;
#X connect 2 0 3 0;
#X connect 3 0 1 0;
#X connect 4 0 6 0;
#X connect 5 0 8 0;
#X connect 6 0 10 0;
#X connect 7 0 2 0;
#X connect 8 0 9 0;
#X connect 8 1 7 0;
#X connect 9 0 7 1;
#X connect 10 0 7 1;
#X restore 64 350 pd behavior_0;
#X obj -6 615 change -1;
#X obj 27 697 r setPage;
#X msg 27 719 set \$1;
#X obj 219 352 change;
#X obj 165 606 spigot;
#X msg 219 715 list /midiCtlAssignLabel midi-Controller-Number \$1
on Channel \$3 assigned to \$2 \, list /midiAssignableLabel;
#X obj 162 49 route set;
#X text 405 11 creatioArgs: instanceID (0=no Instance) \, behaviour
(1 = drip \, 0 = value \, 2 = toggle) \, assignLabelName \, Math* \,
Math+ \, jumpPage;
#N canvas 140 187 450 300 behavior_0 0;
#X obj 114 -16 inlet;
#X obj 114 6 t b;
#X obj 74 151 f;
#X obj 103 151 + 1;
#X obj 183 94 inlet;
#X obj 243 94 inlet;
#X obj 103 171 sel;
#X msg 103 192 0;
#X obj 143 166 t f;
#X obj 103 266 outlet;
#X obj 27 26 inlet;
#X obj 74 129 t b;
#X obj 114 29 f \$2;
#X obj 103 222 * \$4;
#X obj 103 244 + \$4;
#X obj 73 85 spigot;
#X obj 27 48 route reset;
#X msg 27 70 0;
#X floatatom 183 116 5 0 0 0 - - -, f 5;
#X floatatom 46 176 5 0 0 0 - - -, f 5;
#X obj 53 218 bng 15 250 50 0 empty empty empty 17 7 0 10 -262144 -1
-1;
#X floatatom 243 116 5 0 0 0 - - -, f 5;
#X obj 114 50 == 1;
#X connect 0 0 1 0;
#X connect 1 0 12 0;
#X connect 2 0 3 0;
#X connect 2 0 19 0;
#X connect 3 0 2 1;
#X connect 3 0 6 0;
#X connect 4 0 2 1;
#X connect 4 0 18 0;
#X connect 5 0 6 1;
#X connect 5 0 21 0;
#X connect 6 0 7 0;
#X connect 6 1 13 0;
#X connect 7 0 8 0;
#X connect 7 0 13 0;
#X connect 8 0 2 1;
#X connect 10 0 16 0;
#X connect 11 0 2 0;
#X connect 12 0 22 0;
#X connect 13 0 14 0;
#X connect 14 0 9 0;
#X connect 15 0 11 0;
#X connect 16 0 17 0;
#X connect 16 1 15 0;
#X connect 17 0 15 1;
#X connect 19 0 20 0;
#X connect 22 0 15 1;
#X restore 21 371 pd behavior_0;
#X connect 0 0 24 0;
#X connect 1 0 0 1;
#X connect 2 0 3 0;
#X connect 2 0 52 0;
#X connect 3 0 0 1;
#X connect 4 0 5 0;
#X connect 4 0 71 0;
#X connect 4 0 55 0;
#X connect 4 0 80 0;
#X connect 4 1 5 1;
#X connect 4 1 7 0;
#X connect 4 2 5 2;
#X connect 4 2 9 0;
#X connect 5 0 0 0;
#X connect 6 1 13 0;
#X connect 6 2 28 1;
#X connect 6 2 36 0;
#X connect 6 2 18 0;
#X connect 7 0 8 0;
#X connect 8 0 57 0;
#X connect 8 0 69 1;
#X connect 9 0 7 1;
#X connect 10 0 67 0;
#X connect 11 0 68 0;
#X connect 13 0 19 0;
#X connect 13 1 14 0;
#X connect 13 1 31 1;
#X connect 13 1 38 2;
#X connect 14 0 75 0;
#X connect 14 1 40 0;
#X connect 15 0 77 0;
#X connect 15 1 17 0;
#X connect 16 0 58 0;
#X connect 17 0 16 0;
#X connect 18 0 67 0;
#X connect 18 1 10 0;
#X connect 19 0 68 0;
#X connect 19 0 23 0;
#X connect 19 1 11 0;
#X connect 20 0 22 0;
#X connect 22 0 27 0;
#X connect 23 0 22 1;
#X connect 24 1 6 0;
#X connect 24 2 23 0;
#X connect 24 2 3 0;
#X connect 26 0 29 1;
#X connect 27 0 31 0;
#X connect 27 1 44 0;
#X connect 27 2 28 0;
#X connect 27 3 43 0;
#X connect 28 0 29 0;
#X connect 29 0 21 0;
#X connect 30 0 32 1;
#X connect 31 0 32 0;
#X connect 32 0 21 0;
#X connect 33 0 34 0;
#X connect 33 0 60 0;
#X connect 33 0 64 0;
#X connect 33 0 3 0;
#X connect 34 0 22 1;
#X connect 34 0 69 1;
#X connect 35 0 80 3;
#X connect 36 0 37 2;
#X connect 36 0 38 3;
#X connect 37 0 15 0;
#X connect 38 0 49 0;
#X connect 38 0 61 0;
#X connect 39 0 38 1;
#X connect 40 0 37 1;
#X connect 41 0 18 0;
#X connect 41 0 36 0;
#X connect 41 0 61 0;
#X connect 41 0 28 1;
#X connect 42 0 19 0;
#X connect 42 0 38 2;
#X connect 42 0 61 0;
#X connect 42 0 31 1;
#X connect 43 0 26 0;
#X connect 44 0 30 0;
#X connect 45 0 78 0;
#X connect 46 0 59 0;
#X connect 47 0 46 0;
#X connect 47 1 39 0;
#X connect 47 2 12 0;
#X connect 47 2 66 0;
#X connect 47 3 76 0;
#X connect 47 4 40 0;
#X connect 48 0 17 0;
#X connect 49 0 58 0;
#X connect 50 0 58 0;
#X connect 51 0 50 0;
#X connect 52 0 58 0;
#X connect 53 0 1 0;
#X connect 53 0 2 0;
#X connect 53 0 51 0;
#X connect 53 1 54 0;
#X connect 54 0 2 0;
#X connect 55 0 69 0;
#X connect 56 0 80 1;
#X connect 56 1 71 1;
#X connect 56 2 55 1;
#X connect 57 0 56 0;
#X connect 59 0 38 0;
#X connect 60 0 59 1;
#X connect 60 0 76 1;
#X connect 61 0 59 1;
#X connect 61 0 76 1;
#X connect 63 0 62 0;
#X connect 64 0 9 1;
#X connect 64 0 8 1;
#X connect 64 0 65 0;
#X connect 64 0 10 0;
#X connect 64 0 11 0;
#X connect 65 0 55 0;
#X connect 65 0 71 0;
#X connect 65 0 80 0;
#X connect 66 0 70 0;
#X connect 67 0 9 1;
#X connect 68 0 8 1;
#X connect 69 0 47 0;
#X connect 70 0 72 0;
#X connect 71 0 69 0;
#X connect 72 0 63 0;
#X connect 73 0 74 0;
#X connect 74 0 72 0;
#X connect 75 0 37 0;
#X connect 76 0 17 0;
#X connect 77 0 58 0;
#X connect 78 0 80 2;
#X connect 78 1 53 0;
#X connect 80 0 69 0;
