#N canvas 221 52 730 722 10;
#X obj 131 233 f 1;
#X obj 157 234 + 1;
#X obj 131 328 sel 1;
#X obj 131 306 % 24;
#X obj 131 350 f 1;
#X obj 157 351 + 1;
#X msg 173 328 1;
#X floatatom 131 372 5 0 0 0 quarters - -, f 5;
#X obj 31 327 sel 1;
#X obj 31 349 f 1;
#X obj 57 350 + 1;
#X msg 73 327 1;
#X floatatom 31 371 5 0 0 0 bars - -, f 5;
#X obj 31 305 % 96;
#X obj 231 328 sel 1;
#X obj 231 350 f 1;
#X obj 257 351 + 1;
#X msg 273 328 1;
#X floatatom 231 372 5 0 0 0 sixteens - -, f 5;
#X obj 231 306 % 6;
#X obj 82 350 sel 5;
#X obj 182 351 sel 5;
#X obj 282 351 sel 5;
#X obj 306 165 route 242;
#X obj 357 204 spigot;
#X msg 390 182 1;
#X obj 357 226 t f b;
#X obj 409 243 tgl 15 0 empty empty empty 17 7 0 10 -262144 -1 -1 0
1;
#X obj 409 263 sel 1;
#X obj 357 258 spigot;
#X obj 357 311 / 16;
#X obj 357 333 i;
#X obj 387 333 i;
#X obj 387 311 / 4;
#X obj 387 355 % 4;
#X obj 427 315 % 4;
#X obj 427 337 + 1;
#X obj 357 280 t f f f;
#X obj 453 381 * 6;
#X obj 438 401 * 24;
#X obj 438 423 +;
#X msg 155 207 1;
#X obj 31 411 outlet;
#X obj 131 411 outlet;
#X obj 231 412 outlet;
#X obj 340 465 > 0;
#X obj 340 487 sel 1;
#X obj 340 440 f;
#X obj 340 355 t b f;
#X obj 387 375 t b f;
#X obj 387 435 > 0;
#X obj 387 457 sel 1;
#X obj 387 410 f;
#X obj 285 258 outlet;
#X msg 209 219 start;
#X msg 249 219 stop;
#X obj 567 368 timer;
#X obj 567 344 t b b;
#X obj 60 145 midirealtimein;
#X obj 567 520 i;
#X obj 131 182 sel 250 252 248 251;
#X msg 285 219 continue;
#X obj 567 399 t b f;
#X msg 567 420 60000;
#X obj 567 441 /;
#X msg 567 572 bpm \$1;
#X obj 567 499 + 0.5;
#X obj 567 541 change;
#X obj 167 51 inlet;
#X obj 60 166 spigot;
#X obj 306 123 midiin;
#X obj 306 143 spigot;
#X connect 0 0 1 0;
#X connect 0 0 3 0;
#X connect 0 0 13 0;
#X connect 0 0 19 0;
#X connect 1 0 0 1;
#X connect 2 0 4 0;
#X connect 2 0 57 0;
#X connect 3 0 2 0;
#X connect 4 0 5 0;
#X connect 4 0 7 0;
#X connect 5 0 4 1;
#X connect 5 0 21 0;
#X connect 6 0 4 1;
#X connect 7 0 43 0;
#X connect 8 0 9 0;
#X connect 9 0 10 0;
#X connect 9 0 12 0;
#X connect 10 0 9 1;
#X connect 10 0 20 0;
#X connect 11 0 9 1;
#X connect 12 0 42 0;
#X connect 13 0 8 0;
#X connect 14 0 15 0;
#X connect 15 0 16 0;
#X connect 15 0 18 0;
#X connect 16 0 15 1;
#X connect 16 0 22 0;
#X connect 17 0 15 1;
#X connect 18 0 44 0;
#X connect 19 0 14 0;
#X connect 20 0 11 0;
#X connect 21 0 6 0;
#X connect 22 0 17 0;
#X connect 23 0 25 0;
#X connect 23 1 24 0;
#X connect 24 0 26 0;
#X connect 25 0 24 1;
#X connect 26 0 29 0;
#X connect 26 1 27 0;
#X connect 27 0 28 0;
#X connect 27 0 29 1;
#X connect 28 1 24 1;
#X connect 29 0 37 0;
#X connect 30 0 31 0;
#X connect 31 0 48 0;
#X connect 32 0 34 0;
#X connect 33 0 32 0;
#X connect 34 0 39 0;
#X connect 34 0 5 0;
#X connect 34 0 49 0;
#X connect 35 0 36 0;
#X connect 35 0 38 0;
#X connect 35 0 16 0;
#X connect 36 0 18 0;
#X connect 37 0 30 0;
#X connect 37 1 33 0;
#X connect 37 2 35 0;
#X connect 38 0 40 1;
#X connect 38 0 52 1;
#X connect 39 0 40 0;
#X connect 40 0 1 0;
#X connect 40 0 47 1;
#X connect 41 0 0 1;
#X connect 41 0 4 1;
#X connect 41 0 9 1;
#X connect 41 0 15 1;
#X connect 45 0 46 0;
#X connect 46 0 9 0;
#X connect 47 0 45 0;
#X connect 48 0 47 0;
#X connect 48 1 10 0;
#X connect 49 0 52 0;
#X connect 49 1 4 0;
#X connect 50 0 51 0;
#X connect 51 0 4 0;
#X connect 52 0 50 0;
#X connect 54 0 53 0;
#X connect 55 0 53 0;
#X connect 56 0 62 0;
#X connect 57 0 56 0;
#X connect 57 1 56 1;
#X connect 58 0 69 0;
#X connect 59 0 67 0;
#X connect 60 0 54 0;
#X connect 60 1 41 0;
#X connect 60 1 55 0;
#X connect 60 2 0 0;
#X connect 60 3 54 0;
#X connect 60 3 61 0;
#X connect 61 0 53 0;
#X connect 62 0 63 0;
#X connect 62 1 64 1;
#X connect 63 0 64 0;
#X connect 64 0 66 0;
#X connect 65 0 53 0;
#X connect 66 0 59 0;
#X connect 67 0 65 0;
#X connect 68 0 69 1;
#X connect 68 0 71 1;
#X connect 69 0 60 0;
#X connect 70 0 71 0;
#X connect 71 0 23 0;
#X connect 71 0 60 0;
