#N canvas 372 142 1027 428 10;
#X obj 38 177 table seq-\$1;
#X obj 128 20 r seq-\$1;
#X obj 266 48 r storePreset;
#X obj 176 147 s storeToPreset;
#X obj 176 126 list trim;
#X obj 176 86 list;
#X obj 176 106 list prepend add seq-\$1;
#X obj 197 65 t l b l;
#X obj 270 189 list length;
#X obj 128 42 route resize;
#X obj 236 168 list split 1;
#X obj 270 230 s seq-\$1;
#X msg 270 209 resize \$1;
#X obj 84 63 r dumpInst-\$1;
#X obj 118 213 s toGUI;
#X obj 118 190 list prepend /seqPos;
#X obj 84 152 list split 1;
#X obj 84 106 sel 1;
#N canvas 0 22 450 300 1tel 0;
#X obj 97 32 inlet;
#X obj 97 157 outlet;
#X obj 97 79 / 4;
#X obj 163 62 r GoHowMany4telS;
#X obj 97 98 i;
#X obj 97 52 - 1;
#X obj 97 117 change;
#X obj 97 137 + 2;
#X connect 0 0 5 0;
#X connect 2 0 4 0;
#X connect 3 0 2 1;
#X connect 4 0 6 0;
#X connect 5 0 2 0;
#X connect 6 0 7 0;
#X connect 7 0 1 0;
#X restore 429 105 pd 1tel;
#N canvas 0 22 450 300 2tel 0;
#X obj 97 32 inlet;
#X obj 97 159 outlet;
#X obj 97 98 i;
#X obj 97 52 - 1;
#X obj 97 117 change;
#X obj 97 79 / 2;
#X obj 97 137 + 2;
#X connect 0 0 3 0;
#X connect 2 0 4 0;
#X connect 3 0 5 0;
#X connect 4 0 6 0;
#X connect 5 0 2 0;
#X connect 6 0 1 0;
#X restore 479 105 pd 2tel;
#N canvas 783 361 450 300 4tel 0;
#X obj 41 22 inlet;
#X obj 41 67 outlet;
#X obj 41 44 + 1;
#X connect 0 0 2 0;
#X connect 2 0 1 0;
#X restore 527 105 pd 4tel;
#N canvas 678 237 450 300 8telGr 0;
#X obj 41 -8 inlet;
#X obj 41 115 outlet;
#X obj 41 12 * 2;
#X obj 41 32 - 1;
#X obj 69 29 pipe;
#X obj 90 -3 r 8telGr;
#X obj 41 93 + 1;
#X connect 0 0 2 0;
#X connect 2 0 3 0;
#X connect 2 0 4 0;
#X connect 3 0 6 0;
#X connect 4 0 6 0;
#X connect 5 0 4 1;
#X connect 6 0 1 0;
#X restore 590 105 pd 8telGr;
#N canvas 234 360 450 300 16telGr 0;
#X obj 41 -28 inlet;
#X obj 41 117 outlet;
#X obj 69 9 pipe;
#X obj 90 -53 r 16telGr;
#X obj 41 -8 * 4;
#X obj 41 12 - 3;
#X obj 131 9 pipe;
#X obj 99 9 pipe;
#X obj 152 -13 r 16telGrPost;
#X obj 69 29 - 2;
#X obj 99 29 - 1;
#X obj 120 -33 r 8telGr;
#X obj 41 94 + 1;
#X connect 0 0 4 0;
#X connect 2 0 9 0;
#X connect 3 0 2 1;
#X connect 4 0 2 0;
#X connect 4 0 5 0;
#X connect 4 0 7 0;
#X connect 4 0 6 0;
#X connect 5 0 12 0;
#X connect 6 0 12 0;
#X connect 7 0 10 0;
#X connect 8 0 6 1;
#X connect 9 0 12 0;
#X connect 10 0 12 0;
#X connect 11 0 7 1;
#X connect 12 0 1 0;
#X restore 660 105 pd 16telGr;
#X obj 575 253 mod;
#X obj 543 291 f;
#X obj 575 274 sel 0;
#X obj 575 122 - 1;
#X obj 429 85 spigot;
#X obj 479 85 spigot;
#X obj 527 85 spigot;
#X obj 590 85 spigot;
#X obj 660 85 spigot;
#X obj 462 64 == 0;
#X obj 512 64 == 1;
#X obj 560 64 == 2;
#X obj 623 64 == 3;
#X obj 693 64 == 4;
#X msg 392 87 0;
#X msg 439 47 1;
#X msg 581 47 4;
#X msg 534 47 3;
#X msg 486 47 2;
#X obj 392 28 sel Bars halfBars Quarters Eighths Sixteens;
#X obj 602 338 outlet;
#X obj 678 296 r dumpInst-\$1;
#X obj 678 339 sel 1;
#X obj 602 378 spigot;
#X msg 678 361 1;
#X msg 708 361 0;
#X obj 602 430 s seqProgress;
#X obj 113 377 s setProgLength;
#X obj 113 356 f;
#N canvas 579 186 837 656 readRand 0;
#X obj 63 75 inlet;
#X obj 63 97 t f b;
#X obj 63 349 spigot;
#X obj 135 306 moses 1;
#X obj 135 114 random 100;
#X msg 145 332 1;
#X msg 112 332 0;
#X obj 193 323 t b;
#X obj 193 354 random;
#X obj 63 371 outlet;
#X obj 322 301 inlet;
#X obj 174 281 * 1;
#X obj 174 247 f;
#X obj 263 188 / 64;
#X obj 248 209 *;
#X obj 267 264 +;
#X obj 294 247 < 0;
#X obj 248 230 t b f f;
#X obj 248 168 / 127;
#X obj 248 146 r \$1-providedVel;
#X obj 543 55 sel 1;
#X obj 569 75 s /readRand-\$1;
#X obj 174 70 presFloat /readRand \$1 0 randomizeReadPosition 100 0
4 0 /instSeqLength-\$1 > 0;
#X obj 263 112 presFloat /velToReadRand \$1 0.5 velocityInToRandomRead
128 -64 4 0 /readRand-\$1 > 0;
#X connect 0 0 1 0;
#X connect 1 0 2 0;
#X connect 1 1 4 0;
#X connect 2 0 9 0;
#X connect 3 0 6 0;
#X connect 3 0 7 0;
#X connect 3 1 5 0;
#X connect 4 0 3 0;
#X connect 5 0 2 1;
#X connect 6 0 2 1;
#X connect 7 0 8 0;
#X connect 8 0 9 0;
#X connect 10 0 8 1;
#X connect 11 0 3 1;
#X connect 12 0 11 0;
#X connect 13 0 14 1;
#X connect 14 0 17 0;
#X connect 15 0 11 1;
#X connect 16 0 15 1;
#X connect 17 0 12 0;
#X connect 17 1 15 0;
#X connect 17 2 16 0;
#X connect 18 0 14 0;
#X connect 19 0 18 0;
#X connect 20 1 21 0;
#X connect 22 0 12 0;
#X connect 22 1 20 0;
#X connect 23 0 13 0;
#X restore 602 316 pd readRand;
#X obj 678 317 == 4;
#X obj 84 84 == 4;
#X obj 84 132 list 0 0 0 0 0;
#X obj 227 356 f;
#X obj 718 339 sel 1;
#X obj 718 317 == 5;
#X obj 227 377 s setFixMenu;
#X obj 815 275 r setPage;
#X obj 815 297 spigot;
#X obj 917 271 r editInst;
#X obj 917 293 == \$1;
#X obj 558 223 sel 0;
#X obj 392 6 presSymbol /seqMode \$1 Eighths 4 /instSeqLength-\$1 >
0;
#X msg 672 240 \; toGUI list /instSeqLengthLabel Sequencer Off;
#N canvas 656 178 847 389 dependant 0;
#X obj 43 92 inlet;
#X obj 43 114 spigot 1;
#X obj 43 136 outlet;
#N canvas 228 23 450 300 depender 0;
#X obj 10 80 outlet;
#X obj 10 60 > 0;
#X obj 10 10 r /instSeqLength-\$1;
#X obj 10 32 route float;
#X connect 1 0 0 0;
#X connect 2 0 3 0;
#X connect 3 0 1 0;
#X restore 132 97 pd depender;
#X connect 0 0 1 0;
#X connect 1 0 2 0;
#X connect 3 0 1 1;
#X restore 266 69 pd dependant;
#N canvas 303 23 1190 341 GUIADD 0;
#X obj 164 39 r setPage;
#X obj 164 83 spigot;
#X obj 250 51 r editInst;
#X obj 250 103 == \$1;
#X obj 250 73 f 1;
#X obj 111 123 spigot;
#X obj 111 101 != 0;
#X obj 111 145 change;
#X msg 203 128 set -1;
#X obj 69 53 inlet;
#X msg 111 175 \; toGUI list /seqNoteAddLabel enable \$1;
#X obj 164 106 == 5;
#X obj 164 61 t b f b;
#X obj 401 221 s /seqNote-\$1;
#X obj 687 78 spigot;
#X obj 634 118 spigot;
#X obj 634 145 change;
#X obj 687 101 == 6;
#X msg 634 247 list /seqActiveLabel enable \$1 \, list /seqFixPosMenu
enable \$1 \, list /seqPosNoteLabel enable \$1 \, list /seqStepPosNoteLowest
enable \$1 \, list /seqStepPosNoteLowestLabel enable \$1 \, list /seqStepPosNoteHighest
enable \$1 \, list /seqStepPosNoteHighestLabel enable \$1;
#X obj 634 335 s toGUI;
#X obj 509 78 spigot;
#X obj 456 118 spigot;
#X obj 456 145 change;
#X obj 509 101 == 4;
#X msg 456 167 \; toGUI list /seqPos enable \$1;
#X obj 374 162 sel 1;
#X obj 374 142 > 0;
#X msg 401 199 0.5;
#X obj 776 178 r /seqNote-\$1;
#X obj 776 200 == 0;
#X obj 634 167 sel 1;
#X obj 634 217 f 1;
#X msg 668 223 list /seqFixPosSlider enable \$1;
#X connect 0 0 12 0;
#X connect 1 0 11 0;
#X connect 2 0 4 0;
#X connect 3 0 1 1;
#X connect 3 0 14 1;
#X connect 3 0 20 1;
#X connect 4 0 3 0;
#X connect 5 0 7 0;
#X connect 5 0 26 0;
#X connect 6 0 5 0;
#X connect 6 0 15 0;
#X connect 6 0 21 0;
#X connect 7 0 10 0;
#X connect 8 0 7 0;
#X connect 8 0 16 0;
#X connect 8 0 22 0;
#X connect 9 0 6 0;
#X connect 11 0 5 1;
#X connect 12 0 6 0;
#X connect 12 1 1 0;
#X connect 12 1 14 0;
#X connect 12 1 20 0;
#X connect 12 2 4 0;
#X connect 12 2 8 0;
#X connect 14 0 17 0;
#X connect 15 0 16 0;
#X connect 16 0 30 0;
#X connect 16 0 32 0;
#X connect 17 0 15 1;
#X connect 18 0 19 0;
#X connect 20 0 23 0;
#X connect 21 0 22 0;
#X connect 22 0 24 0;
#X connect 23 0 21 1;
#X connect 25 1 27 0;
#X connect 26 0 25 0;
#X connect 27 0 13 0;
#X connect 28 0 29 0;
#X connect 29 0 31 1;
#X connect 30 0 31 0;
#X connect 30 1 18 0;
#X connect 31 0 18 0;
#X connect 32 0 19 0;
#X restore 424 247 pd GUIADD;
#X obj 602 400 spigot;
#X obj 669 395 > 0;
#X obj 744 48 r songPos;
#X obj 744 68 spigot;
#X obj 777 103 > 1;
#X obj 558 201 presFloat /instSeqLength \$1 4 ReadMode 1 0 4;
#X connect 1 0 9 0;
#X connect 2 0 67 0;
#X connect 4 0 3 0;
#X connect 5 0 6 0;
#X connect 6 0 4 0;
#X connect 7 0 5 1;
#X connect 7 0 55 1;
#X connect 7 1 5 1;
#X connect 7 2 10 0;
#X connect 8 0 12 0;
#X connect 9 0 51 1;
#X connect 9 0 52 1;
#X connect 9 0 56 1;
#X connect 9 1 7 0;
#X connect 10 1 8 0;
#X connect 12 0 11 0;
#X connect 13 0 54 0;
#X connect 15 0 14 0;
#X connect 16 1 15 0;
#X connect 17 0 55 0;
#X connect 18 0 26 0;
#X connect 19 0 26 0;
#X connect 20 0 26 0;
#X connect 21 0 26 0;
#X connect 22 0 26 0;
#X connect 23 0 25 0;
#X connect 24 0 52 0;
#X connect 25 0 24 0;
#X connect 25 1 52 0;
#X connect 26 0 23 0;
#X connect 27 0 18 0;
#X connect 28 0 19 0;
#X connect 29 0 20 0;
#X connect 30 0 21 0;
#X connect 31 0 22 0;
#X connect 32 0 27 1;
#X connect 33 0 28 1;
#X connect 34 0 29 1;
#X connect 35 0 30 1;
#X connect 36 0 31 1;
#X connect 37 0 36 0;
#X connect 37 0 35 0;
#X connect 37 0 34 0;
#X connect 37 0 33 0;
#X connect 37 0 32 0;
#X connect 38 0 36 0;
#X connect 38 0 35 0;
#X connect 38 0 34 0;
#X connect 38 0 33 0;
#X connect 38 0 32 0;
#X connect 39 0 36 0;
#X connect 39 0 35 0;
#X connect 39 0 34 0;
#X connect 39 0 33 0;
#X connect 39 0 32 0;
#X connect 40 0 33 0;
#X connect 40 0 36 0;
#X connect 40 0 35 0;
#X connect 40 0 34 0;
#X connect 40 0 32 0;
#X connect 41 0 32 0;
#X connect 41 0 36 0;
#X connect 41 0 35 0;
#X connect 41 0 34 0;
#X connect 41 0 33 0;
#X connect 42 0 37 0;
#X connect 42 1 38 0;
#X connect 42 2 41 0;
#X connect 42 3 40 0;
#X connect 42 4 39 0;
#X connect 44 0 53 0;
#X connect 44 0 58 0;
#X connect 45 0 47 0;
#X connect 45 0 51 0;
#X connect 45 1 48 0;
#X connect 46 0 69 0;
#X connect 47 0 46 1;
#X connect 48 0 46 1;
#X connect 51 0 50 0;
#X connect 52 0 43 0;
#X connect 52 0 46 0;
#X connect 53 0 45 0;
#X connect 54 0 17 0;
#X connect 55 0 16 0;
#X connect 56 0 59 0;
#X connect 57 0 56 0;
#X connect 58 0 57 0;
#X connect 60 0 61 0;
#X connect 61 0 58 0;
#X connect 61 0 53 0;
#X connect 62 0 63 0;
#X connect 63 0 61 1;
#X connect 64 0 66 0;
#X connect 64 1 23 1;
#X connect 64 1 24 1;
#X connect 65 0 42 0;
#X connect 67 0 5 0;
#X connect 69 0 49 0;
#X connect 70 0 69 1;
#X connect 71 0 72 0;
#X connect 72 0 31 0;
#X connect 72 0 30 0;
#X connect 72 0 29 0;
#X connect 72 0 28 0;
#X connect 72 0 27 0;
#X connect 73 0 72 1;
#X connect 74 0 64 0;
#X connect 74 0 70 0;
#X connect 74 0 73 0;
#X connect 74 0 68 0;
