#N canvas 746 439 715 495 10;
#X obj 86 174 outlet;
#X obj 171 106 r storePreset;
#X obj 171 218 s storeToPreset;
#X obj 171 197 list trim;
#X obj 15 86 symbol \$1;
#X obj -30 9 r dumpInst-\$2;
#X obj 15 66 r inst-\$2-init;
#X obj -30 157 symbol \$3;
#X obj 171 157 symbol \$3;
#X msg -30 288 list \$2Label \$1;
#X obj -30 244 pack s s;
#X obj 171 177 list prepend add \$1-\$2 symbol;
#X obj -30 31 == \$4;
#X obj -30 83 sel 1;
#X obj 85 120 r \$1-\$2;
#X obj 85 140 sel [dummy];
#X obj 148 112 t s;
#X obj -30 53 t f f;
#X obj -30 328 spigot;
#X obj -30 350 s toGUI;
#N canvas 171 23 955 688 dependant 0;
#X obj 43 92 inlet;
#X obj 43 114 spigot 1;
#X obj 43 136 outlet;
#X obj 373 135 r inst-\$2-init;
#N canvas 228 23 450 300 \$0-depender 0;
#X obj 10 80 outlet;
#X restore 132 97 pd \$0-depender;
#X obj 255 174 symbol \$1;
#X obj 390 229 t a a;
#X obj 390 315 spigot;
#X obj 436 266 list length;
#X obj 373 157 t b b b;
#X obj 436 246 list-unique;
#X obj 436 298 > 3;
#X obj 132 191 pack f s;
#X msg 132 213 \; toGUI list \$2 enable \$1 \; toGUI list \$2Label
enable \$1;
#X obj 132 119 f 1;
#X obj 132 141 spigot;
#X obj 132 163 spigot;
#X obj 287 102 r editInst;
#X obj 287 124 == \$2;
#X obj 190 118 r setPage;
#X obj 190 162 t f f;
#X obj 190 184 sel 1;
#X obj 390 181 symbol \$5;
#X obj 460 181 symbol \$6;
#X obj 390 207 pack s s \$7 \$0;
#X obj 190 140 == \$4;
#X msg 390 338 \; pd-\$4-depender obj 10 10 r \$1 \; pd-\$4-depender
obj 10 30 route float \; pd-\$4-depender obj 10 50 \$2 \$3 \; pd-\$4-depender
connect 1 0 2 0 \; pd-\$4-depender connect 2 0 3 0 \; pd-\$4-depender
connect 3 0 0 0 \;;
#X connect 0 0 1 0;
#X connect 1 0 2 0;
#X connect 3 0 9 0;
#X connect 4 0 1 1;
#X connect 4 0 14 0;
#X connect 5 0 12 1;
#X connect 6 0 7 0;
#X connect 6 1 10 0;
#X connect 7 0 26 0;
#X connect 8 0 11 0;
#X connect 9 0 5 0;
#X connect 9 1 22 0;
#X connect 9 2 23 0;
#X connect 10 0 8 0;
#X connect 11 0 7 1;
#X connect 12 0 13 0;
#X connect 14 0 15 0;
#X connect 15 0 16 0;
#X connect 16 0 12 0;
#X connect 17 0 18 0;
#X connect 18 0 15 1;
#X connect 19 0 25 0;
#X connect 20 0 21 0;
#X connect 20 1 16 1;
#X connect 21 0 14 0;
#X connect 22 0 24 0;
#X connect 23 0 24 1;
#X connect 24 0 6 0;
#X connect 25 0 20 0;
#X restore 171 133 pd dependant;
#X text 204 9 creationArgs: GUIadress \, instanceID \, symbol \, pageDump
\, dependantAdress \, dependantFunction(< \, > \, == \, !=) dependantValue
;
#X connect 1 0 20 0;
#X connect 3 0 2 0;
#X connect 4 0 10 1;
#X connect 5 0 12 0;
#X connect 6 0 4 0;
#X connect 7 0 0 0;
#X connect 7 0 10 0;
#X connect 8 0 11 0;
#X connect 9 0 18 0;
#X connect 10 0 9 0;
#X connect 11 0 3 0;
#X connect 12 0 17 0;
#X connect 13 0 7 0;
#X connect 14 0 15 0;
#X connect 15 1 16 0;
#X connect 15 1 7 0;
#X connect 15 1 8 1;
#X connect 16 0 15 1;
#X connect 17 0 13 0;
#X connect 17 1 18 1;
#X connect 18 0 19 0;
#X connect 20 0 8 0;
