#N canvas 506 114 830 625 10;
#X obj 145 293 outlet;
#X obj 231 136 r storePreset;
#X obj 231 248 s storeToPreset;
#X obj 231 227 list trim;
#X obj 58 146 symbol \$1;
#X obj 231 187 f \$3;
#X msg 30 348 list \$2 set \$1;
#X msg 50 368 list \$2Label \$3: \$1;
#X obj 30 304 pack f s s;
#X obj 76 169 symbol \$4;
#X obj 30 187 f \$3;
#X obj 58 126 r inst-\$2-init;
#X obj 231 207 list prepend add \$1-\$2;
#X obj 77 325 pack f s s;
#X obj 30 209 * \$5;
#X obj 30 231 + \$6;
#X obj 30 254 i;
#X obj 30 104 sel 1;
#X obj 30 0 r dumpInst-\$2;
#X obj 30 52 == \$7;
#X obj 145 170 change -1;
#X obj 30 388 spigot;
#X obj 30 450 s toGUI;
#X obj 30 74 t f f;
#X obj 409 182 midiAssign \$2 \$8 \$1-\$2 \$5 \$6 \$7;
#X obj 409 204 / \$5;
#X obj 409 224 / \$5;
#X obj 448 266 f \$2;
#X obj 448 334 change;
#X msg 502 317 set \$1;
#X obj 502 295 r editInst;
#X obj 448 358 s editInst;
#X obj 409 246 t f b b;
#X obj 428 387 f \$7;
#X obj 428 409 change;
#X obj 567 370 r setPage;
#X msg 567 392 set \$1;
#X obj 272 426 s setPage;
#X obj 428 499 pack;
#X obj 428 457 spigot;
#X msg 428 521 \; dumpInst-\$2 \$1;
#X msg 496 440 1;
#X msg 481 466 0;
#X msg 272 448 list /setPage \$1;
#X obj 272 471 s toSystem;
#X obj 338 165 spigot;
#X obj 371 141 r assignClose;
#N canvas 625 44 882 649 dependant 0;
#X obj 43 92 inlet;
#X obj 43 114 spigot 1;
#X obj 43 136 outlet;
#X obj 373 135 r inst-\$2-init;
#N canvas 0 22 450 300 \$0-depender 0;
#X obj 10 70 outlet;
#X restore 132 97 pd \$0-depender;
#X obj 390 181 symbol \$9;
#X obj 460 181 symbol \$10;
#X obj 255 174 symbol \$1;
#X obj 390 229 t a a;
#X obj 390 315 spigot;
#X obj 436 266 list length;
#X obj 390 207 pack s s \$11 \$0;
#X obj 373 157 t b b b;
#X obj 436 246 list-unique;
#X obj 436 298 > 3;
#X obj 132 211 pack f s;
#X msg 132 233 \; toGUI list \$2 enable \$1 \; toGUI list \$2Label
enable \$1;
#X obj 132 119 f 1;
#X obj 132 141 spigot;
#X obj 132 163 spigot;
#X obj 287 102 r editInst;
#X obj 287 124 == \$2;
#X obj 190 78 r setPage;
#X obj 190 140 == \$7;
#X obj 190 162 t f f;
#X obj 190 184 sel 1;
#X obj 83 180 outlet;
#X obj 132 186 change -1;
#X obj 190 206 t b b;
#X msg 234 208 set -1;
#X obj 190 120 change;
#X msg 390 338 \; pd-\$4-depender obj 10 10 r \$1 \; pd-\$4-depender
obj 10 30 route float \; pd-\$4-depender obj 10 50 \$2 \$3 \; pd-\$4-depender
connect 1 0 2 0 \; pd-\$4-depender connect 2 0 3 0 \; pd-\$4-depender
connect 3 0 0 0 \;;
#X connect 0 0 1 0;
#X connect 1 0 2 0;
#X connect 3 0 12 0;
#X connect 4 0 1 1;
#X connect 4 0 17 0;
#X connect 5 0 11 0;
#X connect 6 0 11 1;
#X connect 7 0 15 1;
#X connect 8 0 9 0;
#X connect 8 1 13 0;
#X connect 9 0 31 0;
#X connect 10 0 14 0;
#X connect 11 0 8 0;
#X connect 12 0 7 0;
#X connect 12 1 5 0;
#X connect 12 2 6 0;
#X connect 13 0 10 0;
#X connect 14 0 9 1;
#X connect 15 0 16 0;
#X connect 17 0 18 0;
#X connect 18 0 19 0;
#X connect 19 0 26 0;
#X connect 19 0 27 0;
#X connect 20 0 21 0;
#X connect 21 0 18 1;
#X connect 22 0 30 0;
#X connect 23 0 24 0;
#X connect 24 0 25 0;
#X connect 24 1 19 1;
#X connect 25 0 28 0;
#X connect 27 0 15 0;
#X connect 28 0 17 0;
#X connect 28 1 29 0;
#X connect 29 0 27 0;
#X connect 30 0 23 0;
#X restore 231 162 pd dependant;
#X text 264 49 creationArgs: GUIadress \, instanceID \, init \, LabelSymbol
Math* \, Math+ PageDump \, OPTIONAL: MidiAssBehaviour (def=0) \, dependantAdress
\, dependantFunction(< \, > \, == \, !=) dependantValue;
#X obj 300 184 outlet;
#X obj 30 419 spigot 1;
#N canvas 0 22 450 300 \$0-depender 0;
#X obj 10 70 outlet;
#X restore 120 402 pd \$0-depender;
#X obj 145 271 change -1;
#X obj 145 58 r \$1-\$2;
#X obj 145 78 route Math* Math+;
#X connect 1 0 47 0;
#X connect 3 0 2 0;
#X connect 4 0 8 1;
#X connect 4 0 13 1;
#X connect 5 0 12 0;
#X connect 6 0 21 0;
#X connect 7 0 21 0;
#X connect 8 0 6 0;
#X connect 9 0 8 2;
#X connect 9 0 13 2;
#X connect 10 0 8 0;
#X connect 10 0 14 0;
#X connect 11 0 4 0;
#X connect 11 0 9 0;
#X connect 12 0 3 0;
#X connect 13 0 7 0;
#X connect 14 0 15 0;
#X connect 15 0 16 0;
#X connect 16 0 13 0;
#X connect 16 0 52 0;
#X connect 17 0 10 0;
#X connect 18 0 19 0;
#X connect 19 0 23 0;
#X connect 20 0 5 1;
#X connect 20 0 10 0;
#X connect 21 0 50 0;
#X connect 23 0 17 0;
#X connect 23 1 21 1;
#X connect 24 0 25 0;
#X connect 25 0 26 0;
#X connect 26 0 32 0;
#X connect 27 0 28 0;
#X connect 27 0 38 1;
#X connect 28 0 31 0;
#X connect 28 0 41 0;
#X connect 29 0 28 0;
#X connect 30 0 29 0;
#X connect 32 0 20 0;
#X connect 32 1 33 0;
#X connect 32 2 27 0;
#X connect 33 0 34 0;
#X connect 33 0 39 0;
#X connect 34 0 37 0;
#X connect 34 0 43 0;
#X connect 35 0 36 0;
#X connect 36 0 34 0;
#X connect 38 0 40 0;
#X connect 39 0 38 0;
#X connect 39 0 42 0;
#X connect 41 0 39 1;
#X connect 42 0 39 1;
#X connect 43 0 44 0;
#X connect 45 0 24 0;
#X connect 46 0 45 1;
#X connect 47 0 5 0;
#X connect 47 1 49 0;
#X connect 50 0 22 0;
#X connect 51 0 50 1;
#X connect 52 0 0 0;
#X connect 53 0 54 0;
#X connect 54 0 14 1;
#X connect 54 1 15 1;
#X connect 54 2 45 0;
#X connect 54 2 20 0;
